<svg width="74" height="64" viewBox="0 0 74 64" fill="none" xmlns="http://www.w3.org/2000/svg">
<path d="M47.9466 9.77206L47.9432 9.7699L47.9398 9.76805L44.6155 7.91959L44.6133 7.91835L44.6108 7.91711L41.2164 6.24414L41.2142 6.2429L41.1818 6.30624L41.209 6.24043L37.7546 4.7553L37.7518 4.75407L37.749 4.75314L34.2501 3.47531L34.1738 3.67552L41.1194 6.43538L54.2047 14.1311L60.0971 18.9087L60.2342 18.744L57.3542 16.2792L57.352 16.2774L57.3499 16.2755L54.3314 13.9577L54.2872 14.0137L54.3268 13.9547L51.1894 11.7867L51.1872 11.7852L51.1847 11.784L47.9466 9.77206Z" fill="#D8CDE0" fill-opacity="0.1" stroke="#D8CDE0" stroke-opacity="0.1" stroke-width="0.693723"/>
<path d="M40.8169 22.4771L40.7548 22.229L40.6217 22.4471L39.4458 24.3704L38.5535 21.2453L38.4856 21.0077L38.3586 21.2197L37.0724 23.3653L37.0146 23.4614L37.1132 23.5149L39.3559 24.7272L41.5238 26.0767L43.6058 27.5578L43.8295 27.7169L43.7727 27.4481L43.0102 23.8451L42.9552 23.585L42.8143 23.8108L41.6261 25.7165L40.8169 22.4771Z" fill="#1F0231" stroke="#D8CDE0" stroke-opacity="0.1" stroke-width="0.693723"/>
<path d="M65.3425 24.2786L65.4914 24.1244L60.2408 18.7505L60.2365 18.7462L60.2315 18.7422L54.333 13.9596L54.1934 14.1221L65.3425 24.2786Z" fill="#D8CDE0" fill-opacity="0.1" stroke="#D8CDE0" stroke-opacity="0.1" stroke-width="0.693723"/>
<path d="M42.9963 23.9243L43.0531 23.8331L42.962 23.7766L40.8599 22.4682L40.8633 22.4629L40.7669 22.4104L40.545 22.2723L40.55 22.2927L38.5016 21.1804L38.2773 21.0587L38.3475 21.304L39.3068 24.6642L39.3738 24.899L39.5014 24.6904L40.6711 22.7771L41.4793 26.0137L41.5405 26.2587L41.6743 26.0443L42.9963 23.9243ZM45.1163 25.3408L45.0696 25.0664L44.9204 25.3013L43.5774 27.4129L43.5264 27.4936L43.6006 27.5535L45.5785 29.1585L45.7997 29.338L45.7515 29.0575L45.1163 25.3408Z" fill="#1F0231" stroke="#D8CDE0" stroke-opacity="0.1" stroke-width="0.693723"/>
<path d="M54.2212 14.1403L54.3197 13.9503L41.2205 6.24662L41.2106 6.24075L41.1995 6.23704L27.1693 1.63675L27.0918 1.83633L54.2212 14.1403Z" fill="#D8CDE0" fill-opacity="0.1" stroke="#D8CDE0" stroke-opacity="0.1" stroke-width="0.693723"/>
<path d="M36.0903 20.0549L35.9568 19.9925L35.963 20.0114L33.863 19.1892L33.8019 19.0153L33.7314 19.1376L33.5998 19.086L33.661 19.2603L32.4276 21.4007L32.3652 21.5092L32.482 21.5543L34.7778 22.4385L34.8381 22.6093L34.9057 22.4941L37.0764 23.4979L37.1342 23.6789L37.2065 23.5581L37.3403 23.6199L37.281 23.4339L38.4893 21.4177L40.6587 22.5957L42.8097 23.9344L43.5629 27.4926L43.6173 27.7494L43.7581 27.5278L44.9516 25.6507L45.5331 29.0522L45.5068 29.0927L45.5464 29.1291L45.5862 29.3639L45.6662 29.2407L47.4251 30.8747L47.6417 31.0758L47.6043 30.7826L47.1223 26.9943L47.1535 26.9461L47.1118 26.9127L47.0803 26.6649L46.9858 26.8111L45.1524 25.3352L45.1555 25.33L45.1067 25.2957L44.355 21.6887L44.3007 21.427L44.1592 21.6537L42.9487 23.5952L42.1426 20.3089L42.0815 20.0589L41.9471 20.2786L40.7496 22.237L39.862 19.0626L39.7949 18.8228L39.6667 19.0363L38.408 21.1366L36.2855 20.1458L36.2895 20.1393L36.22 20.1121L36.1626 19.932L36.0903 20.0549Z" fill="#1F0231" stroke="#D8CDE0" stroke-opacity="0.1" stroke-width="0.693723"/>
<path d="M65.3385 24.2743L65.4942 24.1269L62.9624 21.3649L62.9602 21.3624L62.9577 21.3602L60.2387 18.748L60.0879 18.9004L65.3385 24.2743Z" fill="#D8CDE0" fill-opacity="0.1" stroke="#D8CDE0" stroke-opacity="0.1" stroke-width="0.693723"/>
<path d="M44.3405 21.7671L44.3974 21.6763L44.3062 21.6195L42.0945 20.2434L41.8711 20.1047L41.9338 20.3602L42.8004 23.893L42.861 24.1399L42.9954 23.9242L44.3405 21.7671Z" fill="#1F0231" stroke="#D8CDE0" stroke-opacity="0.1" stroke-width="0.693723"/>
<path d="M41.1336 6.44094L41.2065 6.23951L34.2533 3.47655L34.2471 3.47408L34.2406 3.47223L27.1638 1.63489L27.1035 1.84065L41.1336 6.44094Z" fill="#D8CDE0" fill-opacity="0.1" stroke="#D8CDE0" stroke-opacity="0.1" stroke-width="0.693723"/>
<path d="M42.0004 20.602L42.0736 20.4825L44.1544 21.7773L44.8965 25.338L44.8684 25.3822L44.9132 25.418L44.9592 25.6389L45.0364 25.5172L46.9099 27.0255L47.3866 30.7703L47.3619 30.8077L47.3959 30.8441L47.428 31.0965L47.5124 30.9689L49.0998 32.674L49.1214 32.9425L49.2172 32.8001L49.3349 32.9268L49.3133 32.657L50.7085 30.5834L50.7564 30.512L50.6974 30.4499L49.0238 28.6805L49.0275 28.6753L48.991 28.6419L48.9697 28.3737L48.9576 28.3917L48.5396 25.0741L48.552 25.084L48.5128 24.8492L48.543 24.8029L48.501 24.7692L48.4698 24.5214L48.4606 24.5359L47.8726 21.0062L47.8266 20.7303L47.6764 20.9663L46.4357 22.9173L46.4283 22.9291L45.7322 19.5359L45.7665 19.4812L45.7143 19.449L45.6698 19.2312L45.5842 19.3681L43.5343 18.093L43.5374 18.0878L43.4806 18.0566L43.4311 17.8511L43.3523 17.98L43.222 17.8987L43.2266 17.9176L41.1813 16.7979L41.127 16.5996L41.051 16.7266L40.92 16.6546L40.9743 16.8542L39.7194 18.9482L39.5868 18.8759L39.5921 18.8948L37.5783 17.9454L37.582 17.9389L37.5135 17.9117L37.4566 17.7294L37.3834 17.8536L37.2515 17.7915L37.257 17.8097L35.1432 16.9685L35.0829 16.7917L35.0113 16.9159L34.8812 16.864L34.9408 17.0383L33.7282 19.1432L31.4818 18.4369L31.4191 18.2726L31.3496 18.3952L31.221 18.3547L31.2822 18.5148L30.0606 20.6768L29.9951 20.793L30.1224 20.8322L32.4389 21.5413L32.5007 21.7031L32.5709 21.5817L32.6988 21.621L32.6388 21.4637L33.8249 19.4045L36.0478 20.2749L36.1074 20.4488L36.1763 20.3314L38.3618 21.3519L38.419 21.5351L38.4922 21.4127L38.6245 21.4745L38.5667 21.2885L39.7225 19.3604L40.6095 22.5321L40.6756 22.769L40.8041 22.559L42.0004 20.602Z" fill="#1F0231" stroke="#D8CDE0" stroke-opacity="0.1" stroke-width="0.693723"/>
<path d="M54.2829 14.1484L54.6311 14.0909L54.3095 13.9451L27.1801 1.64105L27.0791 1.82951L48.3721 15.0993L48.4064 15.1206L48.4462 15.1138L54.2829 14.1484Z" fill="#D8CDE0" fill-opacity="0.1" stroke="#D8CDE0" stroke-opacity="0.1" stroke-width="0.693723"/>
<path d="M38.8445 15.7216L38.7735 15.4877L38.6496 15.6984L37.3337 17.938L37.2744 18.0393L37.3804 18.0894L39.7127 19.1883L39.9311 19.2915L39.8607 19.0604L38.8445 15.7216ZM47.8569 21.0813L47.9119 20.9951L47.8282 20.9361L45.6801 19.4278L45.4592 19.273L45.5135 19.5371L46.2714 23.2316L46.3245 23.4914L46.4667 23.2677L47.8569 21.0813ZM50.391 26.6103L50.4416 26.5337L50.3737 26.4719L48.4721 24.7467L48.2573 24.5517L48.2938 24.8394L48.781 28.7059L48.8175 28.9929L48.9769 28.7513L50.391 26.6103Z" fill="#1F0231" stroke="#D8CDE0" stroke-opacity="0.1" stroke-width="0.693723"/>
<path d="M54.3262 14.1314L54.2483 13.937L48.4116 14.9025L48.1515 14.9455L48.368 15.0962L50.5604 16.6218L50.6212 16.6642L50.6821 16.6225L54.3262 14.1314ZM34.1859 3.67985L34.2434 3.47316L30.7136 2.42551L30.7102 2.42458L30.7065 2.42365L27.1594 1.63397L27.1094 1.84252L34.1859 3.67985Z" fill="#D8CDE0" fill-opacity="0.1" stroke="#D8CDE0" stroke-opacity="0.1" stroke-width="0.693723"/>
<path d="M41.1824 16.9249L41.2429 16.8239L41.1363 16.7732L38.7889 15.6561L38.5696 15.5516L38.6403 15.784L39.6565 19.1228L39.7266 19.3536L39.8508 19.1466L41.1824 16.9249ZM50.7355 30.8015L50.7512 30.8179L50.7271 30.5176L50.7172 30.187L50.7024 30.2089L50.4092 26.5426L50.3845 26.2327L50.213 26.4922L48.7987 28.6333L48.7517 28.7043L48.8104 28.7658L50.4834 30.5349L49.115 32.5684L49.0715 32.6336L49.12 32.6948L50.6558 34.6344L50.8566 34.8877L50.847 34.5645L50.7355 30.8015ZM31.4513 18.6517L33.7465 19.3734L33.9551 19.4389L33.8791 19.234L32.7699 16.2412L32.6896 16.0246L32.5759 16.2258L31.3469 18.4011L29.0406 17.8632L28.8379 17.8159L28.9173 18.0084L30.0552 20.7705L30.1392 20.9744L30.2476 20.7825L31.4513 18.6517Z" fill="#1F0231" stroke="#D8CDE0" stroke-opacity="0.1" stroke-width="0.693723"/>
<path d="M54.3663 14.0804L54.4855 13.7628L54.2056 13.9544L50.5615 16.4454L50.4404 16.5282L50.5563 16.6185L52.6522 18.2497L52.7671 18.3393L52.8184 18.2031L54.3663 14.0804Z" fill="#D8CDE0" fill-opacity="0.1" stroke="#D8CDE0" stroke-opacity="0.1" stroke-width="0.693723"/>
<path d="M29.1149 17.9268L29.0299 17.7208L28.9221 17.9157L27.6848 20.1476L27.6152 20.273L27.7552 20.3042L30.1304 20.8341L30.3312 20.8792L30.2531 20.6889L29.1149 17.9268ZM49.9148 22.588L49.8839 22.3399L49.7881 22.4876L47.8639 20.9641L47.1166 17.2607L47.0631 16.9963L46.9207 17.2252L45.6639 19.2405L44.8646 15.8575L44.8047 15.6041L44.6691 15.8263L43.4265 17.8589L42.5484 14.5812L42.4832 14.3368L42.3532 14.554L40.9981 16.8149L40.9406 16.9104L41.0386 16.9638L43.3335 18.2203L45.5595 19.6051L47.6684 21.0859L48.2875 24.8026L48.2606 24.844L48.3005 24.8801L48.3397 25.1158L48.4216 24.9901L50.2299 26.6306L50.444 26.825L50.4082 26.538L49.9253 22.6705L49.9568 22.6214L49.9148 22.588ZM33.8709 19.3245L35.1045 17.1835L37.3404 18.0736L37.3991 18.25L37.472 18.1258L37.6009 18.1771L37.5434 18.0047L38.8345 15.8068L38.8975 15.6999L38.7826 15.6533L36.4463 14.7079L36.3867 14.5284L36.3141 14.6544L36.1852 14.6022L36.2436 14.7771L35.0081 16.9212L32.7018 16.1763L32.4917 16.1087L32.5684 16.3157L33.6775 19.3085L33.7569 19.5226L33.8709 19.3245Z" fill="#1F0231" stroke="#D8CDE0" stroke-opacity="0.1" stroke-width="0.693723"/>
<path d="M54.3729 14.035L54.1659 14.005L52.6177 18.1277L52.5918 18.1972L52.6477 18.246L54.6278 19.9764L54.8246 20.1482L54.8051 19.8878L54.3729 14.035Z" fill="#D8CDE0" fill-opacity="0.1" stroke="#D8CDE0" stroke-opacity="0.1" stroke-width="0.693723"/>
<path d="M47.0706 17.1925L46.8534 17.0408L46.8575 17.06L44.9073 15.8473L44.9104 15.8424L44.8147 15.7895L44.5965 15.6539L44.6006 15.6721L42.5942 14.5686L42.5973 14.5633L42.4941 14.5136L42.2766 14.394L42.2813 14.4113L40.1708 13.397L40.1143 13.2061L40.0392 13.334L39.9101 13.2719L39.9657 13.4591L38.6498 15.6984L38.5908 15.7991L38.6962 15.8495L41.0007 16.9463L41.0566 17.1341L41.132 17.0087L41.2611 17.0701L41.2061 16.8848L42.407 14.8809L43.2838 18.1555L43.3487 18.3968L43.4788 18.1839L44.7161 16.1603L45.5144 19.5402L45.5734 19.7905L45.7097 19.5723L46.9597 17.5672L47.6533 21.0028L47.6246 21.0479L47.6694 21.0834L47.7145 21.3059L47.7936 21.1817L49.7131 22.7017L50.1907 26.5253L50.1654 26.5636L50.1981 26.5979L50.5099 30.4947L50.4864 30.5293L50.5136 30.5627L50.6322 34.571L50.6421 34.8998L50.8278 34.6282L52.1906 32.6379L52.3002 32.7735L52.2916 32.4906L52.3169 32.4535L52.2894 32.4195L52.1764 28.6561L52.1915 28.6719L52.1705 28.4099L52.198 28.3694L52.1665 28.3367L52.1578 28.045L52.1433 28.0667L51.851 24.4006L51.8816 24.354L51.8449 24.3209L51.8235 24.0534L51.7204 24.2094L49.9136 22.5902L49.2942 18.8219L49.3272 18.7697L49.2802 18.7369L49.2419 18.5043L49.1514 18.6467L47.1562 17.2524L47.1593 17.2475L47.0706 17.1925Z" fill="#1F0231" stroke="#D8CDE0" stroke-opacity="0.1" stroke-width="0.693723"/>
<path d="M54.369 14.0125L54.1592 14.0508L54.5914 19.9039L54.5945 19.9437L54.6229 19.9721L56.4667 21.7962L56.645 21.6896L54.369 14.0125Z" fill="#D8CDE0" fill-opacity="0.1" stroke="#D8CDE0" stroke-opacity="0.1" stroke-width="0.693723"/>
<path d="M32.7194 16.4071L34.9751 17.1353L35.0353 17.3037L35.1076 17.1782L35.2328 17.2187L35.1759 17.0602L36.4068 14.9232L38.6559 15.8331L38.714 16.0126L38.7882 15.8865L38.9152 15.9381L38.8592 15.7654L40.1244 13.6123L42.3961 14.7042L44.6688 15.9539L44.7207 16.1528L44.7958 16.0302L46.9173 17.3494L46.9658 17.5583L47.0431 17.4344L49.0834 18.8608L49.7019 22.6214L49.6744 22.6634L49.7146 22.6995L49.7535 22.9356L49.836 22.8083L51.6381 24.4235L51.9539 28.387L52.0756 32.4269L50.6513 34.5071L50.6105 34.5664L50.6501 34.6266L51.9492 36.6067L52.134 36.8885L52.146 36.5517L52.2897 32.4936L53.7421 30.3723L53.7878 30.3056L53.7365 30.2435L52.1945 28.3747L53.6169 26.2602L53.6654 26.1879L53.6046 26.1255L51.8785 24.3592L53.2963 22.2132L53.3475 22.1354L53.2777 22.0739L51.3934 20.4059L51.3965 20.4012L51.3542 20.3679L51.3236 20.1198L51.3146 20.1334L50.7344 16.557L50.7678 16.5044L50.7205 16.4717L50.6828 16.2387L50.5917 16.3821L48.5745 14.9785L48.5773 14.9739L48.5257 14.9417L48.4819 14.7218L48.3981 14.8559L48.2727 14.7684L48.2764 14.7867L46.305 13.5614L46.3081 13.5567L46.2518 13.5255L46.2033 13.317L46.123 13.4483L45.9954 13.3692L45.9994 13.3862L43.9168 12.2359L43.8636 12.0339L43.7858 12.1637L43.6576 12.0929L43.7095 12.2909L42.4798 14.3427L41.5484 11.1228L41.4792 10.8837L41.3528 11.0984L40.0367 13.3386L37.773 12.4071L37.714 12.2245L37.6404 12.3524L37.5131 12.3002L37.5697 12.4751L36.3113 14.6594L34.0436 13.9077L33.9821 13.7365L33.9105 13.8635L33.785 13.8221L33.8428 13.9831L32.6156 16.155L30.3547 15.6045L30.2917 15.446L30.2216 15.5723L30.0992 15.5424L30.1573 15.6882L28.9583 17.8508L26.7156 17.5258L26.6516 17.3809L26.583 17.5067L26.4653 17.4897L26.5222 17.6185L25.317 19.8331L25.2422 19.9699L25.3967 19.9906L27.7048 20.2977L27.7679 20.4402L27.8371 20.3154L27.9539 20.3311L27.8983 20.2051L29.0707 18.0903L31.3217 18.6152L31.3838 18.7712L31.4543 18.6461L31.576 18.6745L31.5192 18.5315L32.7194 16.4071Z" fill="#1F0231" stroke="#D8CDE0" stroke-opacity="0.1" stroke-width="0.693723"/>
<path d="M46.1034 13.689L43.7724 12.4013L43.7696 12.3997L43.7668 12.3982L27.0797 1.82955L27.0791 1.82924L27.1906 1.65159V1.65129L46.1034 13.689ZM46.1034 13.689L27.1906 1.65129L46.1034 13.689ZM46.1034 13.689L48.3727 15.0993L48.4858 14.9174V14.9171L27.1956 1.64943L27.1937 1.64819L46.1034 13.689ZM27.1906 1.65129L27.1931 1.64789L27.1906 1.65129ZM54.3379 13.9636L54.2591 14.0393L54.1631 14.0733L56.4391 21.7505L56.4459 21.773L56.4614 21.7909L58.1458 23.7043L58.3253 23.5927L54.6293 14.6421L71.9914 35.3116L72.1651 35.1874L65.5068 24.1439L65.4988 24.1306L65.4874 24.1201L54.3379 13.9636Z" fill="#D8CDE0" fill-opacity="0.1" stroke="#D8CDE0" stroke-opacity="0.1" stroke-width="0.693723"/>
<path d="M43.916 12.3626L43.9763 12.2622L43.8709 12.2112L41.4917 11.0564L41.2751 10.951L41.3418 11.1824L42.3419 14.6387L42.4102 14.875L42.5369 14.664L43.916 12.3626ZM53.5995 34.4925L53.6415 34.4323L53.6004 34.3714L52.2722 32.3988L52.0881 32.125L52.0764 32.455L51.9315 36.5443L51.9185 36.9079L52.1264 36.6092L53.5995 34.4925ZM53.6431 26.4721L53.6579 26.4873L53.6347 26.1947L53.6245 25.8644L53.61 25.8858L53.3131 22.1456L53.2884 21.8351L53.1169 22.0949L51.6515 24.3132L51.604 24.3852L51.6645 24.447L53.39 26.2129L51.9716 28.3212L51.9271 28.3876L51.9778 28.4494L53.5708 30.3798L53.77 30.6217L53.7605 30.3084L53.6431 26.4721ZM34.0098 14.1224L36.3266 14.8905L36.5327 14.9587L36.4613 14.7536L35.3757 11.6313L35.2978 11.4073L35.181 11.6137L33.9069 13.8691L31.6376 13.2926L31.5752 13.1297L31.5039 13.2586L31.3834 13.228L31.4396 13.3744L30.1816 15.6437L30.1133 15.7667L30.2498 15.7997L32.5889 16.3691L32.6501 16.5291L32.7221 16.4015L32.8419 16.4309L32.7869 16.2872L34.0098 14.1224Z" fill="#1F0231" stroke="#D8CDE0" stroke-opacity="0.1" stroke-width="0.693723"/>
<path d="M27.1936 1.64819L27.0771 1.82831L27.0787 1.82924L41.3859 11.2421L41.3918 11.2461L41.398 11.2492L43.7772 12.404L43.8813 12.2171L27.1952 1.64912L27.1936 1.64819Z" fill="#D8CDE0" fill-opacity="0.1" stroke="#D8CDE0" stroke-opacity="0.1" stroke-width="0.693723"/>
<path d="M52.8193 18.1079L52.7887 17.8595L52.692 18.0087L50.6882 16.4491L50.4728 16.2817L50.5164 16.5508L51.1411 20.4013L51.1133 20.4442L51.1538 20.4797L51.1921 20.7164L51.2755 20.5879L53.136 22.2343L53.3476 22.4218L53.3133 22.141L52.8295 18.1907L52.8617 18.141L52.8193 18.1079ZM37.7796 12.5409L37.8444 12.4278L37.7212 12.3858L35.3095 11.5649L35.1016 11.4942L35.1739 11.7015L36.2595 14.8241L36.3367 15.0453L36.4535 14.8423L37.7796 12.5409ZM53.761 30.3155L53.7737 29.9469L53.5655 30.2513L52.0955 32.3982L52.0544 32.4581L52.0951 32.5183L53.4233 34.4913L53.6081 34.7654L53.6192 34.4351L53.761 30.3155Z" fill="#1F0231" stroke="#D8CDE0" stroke-opacity="0.1" stroke-width="0.693723"/>
<path d="M69.4375 29.8802L69.6133 29.7572L67.747 26.9649L67.7448 26.9615L67.742 26.9581L65.4996 24.1328L65.3291 24.2625L69.4375 29.8802Z" fill="#D8CDE0" fill-opacity="0.1" stroke="#D8CDE0" stroke-opacity="0.1" stroke-width="0.693723"/>
<path d="M30.3692 15.7475L30.4437 15.6137L30.2923 15.5899L27.9699 15.2251L27.9062 15.0755L27.8364 15.2041L27.7203 15.1858L27.7756 15.3159L26.5475 17.5725L26.4736 17.7075L26.6263 17.7297L28.9409 18.0649L29.0033 18.212L29.0741 18.0844L29.189 18.1011L29.1353 17.9738L30.3692 15.7475ZM38.9905 10.009L38.8648 9.95651L38.9198 10.1317L37.5937 12.434L37.5326 12.54L37.6456 12.5866L39.9946 13.553L40.0521 13.7356L40.1271 13.6077L40.2526 13.6593L40.1985 13.4863L41.5378 11.2068L41.5999 11.1012L41.4868 11.0539L39.1237 10.065L39.0653 9.87927L38.9905 10.009Z" fill="#1F0231" stroke="#D8CDE0" stroke-opacity="0.1" stroke-width="0.693723"/>
<path d="M27.195 1.64908L27.0742 1.82611L38.9738 10.2321L38.9834 10.2389L38.9942 10.2432L41.4034 11.2516L41.5035 11.0631L27.195 1.64908Z" fill="#D8CDE0" fill-opacity="0.1" stroke="#D8CDE0" stroke-opacity="0.1" stroke-width="0.693723"/>
<path d="M53.6182 34.4434L53.4239 34.3702L51.9508 36.4868L51.9137 36.54L51.9437 36.5974L52.9555 38.5457L53.1174 38.8574L53.1573 38.5083L53.6182 34.4434ZM55.1102 24.0404L55.1593 23.9675L55.0972 23.9051L53.2824 22.0786L53.0766 21.8712L53.0998 22.1626L53.4208 26.2065L53.5466 30.3149L53.5564 30.6433L53.7421 30.3724L55.2387 28.1865L55.2847 28.1192L55.2322 28.0568L53.6618 26.1935L55.1102 24.0404ZM26.7354 17.6748L26.8173 17.5246L26.6464 17.5166L24.3722 17.41L24.1992 17.4019L24.269 17.5601L25.3127 19.9276L25.4007 20.1272L25.5049 19.9357L26.7354 17.6748Z" fill="#1F0231" stroke="#D8CDE0" stroke-opacity="0.1" stroke-width="0.693723"/>
<path d="M54.3629 13.9973L54.167 14.0838L58.1271 23.6743L58.1324 23.6869L58.1404 23.6978L59.5934 25.6343L59.7763 25.5243L54.3629 13.9973Z" fill="#D8CDE0" fill-opacity="0.1" stroke="#D8CDE0" stroke-opacity="0.1" stroke-width="0.693723"/>
<path d="M54.8014 19.8439L54.7804 19.5769L54.6763 19.7345L52.7883 18.0844L52.5773 17.9003L52.6112 18.1783L53.0951 22.1279L53.0688 22.1678L53.1043 22.2037L53.1352 22.4561L53.2233 22.3229L54.883 23.9937L53.4386 26.1406L53.3935 26.2077L53.4457 26.2698L55.068 28.1948L55.2667 28.4306L55.2571 28.1225L55.1366 24.2489L55.1508 24.2634L55.1283 23.9746L55.1178 23.6446L55.1036 23.6656L54.8079 19.9242L54.8391 19.8766L54.8014 19.8439ZM24.4651 17.4739L24.3764 17.2725L24.2726 17.4665L23.0461 19.7583L22.9648 19.91L23.1372 19.9159L25.4071 19.9916L25.5773 19.9971L25.5088 19.8411L24.4651 17.4739ZM55.0995 32.3376L55.1422 32.2767L55.0999 32.2155L53.7417 30.2509L53.5576 29.9846L53.5464 30.3081L53.4046 34.4276L53.3923 34.7907L53.5996 34.4925L55.0995 32.3376Z" fill="#1F0231" stroke="#D8CDE0" stroke-opacity="0.1" stroke-width="0.693723"/>
<path d="M27.1979 1.65128L27.0693 1.82244L36.5458 9.38125L36.56 9.39268L36.5773 9.39855L39.0001 10.2457L39.0974 10.0569L27.1979 1.65128Z" fill="#D8CDE0" fill-opacity="0.1" stroke="#D8CDE0" stroke-opacity="0.1" stroke-width="0.693723"/>
<path d="M35.324 11.7967L37.6013 12.5718L37.6603 12.7467L37.7347 12.6172L37.8568 12.6586L37.803 12.4989L39.1284 10.1978L39.193 10.086L39.0709 10.0434L36.6976 9.21351L36.6377 9.03555L36.5635 9.16685L36.4415 9.12422L36.4961 9.28642L35.2217 11.5418L32.9441 10.9381L32.8823 10.7712L32.8097 10.9025L32.6908 10.871L32.7455 11.0187L31.5004 13.2645L29.2463 12.8823L29.1836 12.7278L29.1119 12.8594L28.9979 12.84L29.051 12.9713L27.8322 15.2106L25.6223 15.0762L25.4502 15.0657L25.5169 15.2248L26.5423 17.6652L26.6285 17.8706L26.7351 17.6748L27.9518 15.4392L30.1988 15.792L30.2603 15.9434L30.3326 15.813L30.4459 15.8309L30.3937 15.7027L31.611 13.507L33.8787 14.0829L33.9396 14.247L34.0128 14.1172L34.1311 14.1472L34.0777 14.0026L35.324 11.7967ZM55.2569 28.1294L55.2693 27.7621L55.0614 28.0654L53.5648 30.2513L53.5231 30.3121L53.5651 30.3727L54.8809 32.2761L53.5234 34.2269L53.4437 34.0786L53.4082 34.3925L53.3859 34.4243L53.4014 34.4527L52.9438 38.4842L53.1378 38.5581L54.5399 36.5727L54.6205 36.7226L54.6557 36.4087L54.6783 36.3769L54.6625 36.3481L55.0861 32.5727L55.1077 32.6039L55.1185 32.2799L55.2569 28.1294ZM56.6305 21.7798L56.68 21.7063L56.6169 21.6439L54.7731 19.8195L54.5683 19.6168L54.5912 19.9042L54.914 23.9891L54.9384 24.2953L55.1099 24.0404L56.6305 21.7798Z" fill="#1F0231" stroke="#D8CDE0" stroke-opacity="0.1" stroke-width="0.693723"/>
<path d="M27.203 1.65497L27.0615 1.81531L34.118 8.70587L34.1378 8.72502L34.1643 8.73244L36.5843 9.4007L36.6798 9.21379L27.203 1.65497Z" fill="#D8CDE0" fill-opacity="0.1" stroke="#D8CDE0" stroke-opacity="0.1" stroke-width="0.693723"/>
<path d="M56.7623 25.9608L56.8087 25.8928L56.7549 25.8301L55.102 23.9106L54.9043 23.6811L54.9139 23.9838L55.0427 28.1294L55.0529 28.4572L55.2383 28.1865L56.7623 25.9608Z" fill="#1F0231" stroke="#D8CDE0" stroke-opacity="0.1" stroke-width="0.693723"/>
<path d="M54.3624 13.9955L54.1689 14.0884L54.1699 14.09L59.5824 25.6154L59.5849 25.621L59.5883 25.6262L60.7536 27.5149L60.9412 27.4114L54.363 13.9973L54.3624 13.9955Z" fill="#D8CDE0" fill-opacity="0.1" stroke="#D8CDE0" stroke-opacity="0.1" stroke-width="0.693723"/>
<path d="M25.7146 15.1417L25.6275 14.9344L25.5212 15.1327L24.2724 17.4665L24.1924 17.6161L24.362 17.6241L26.6359 17.7307L26.8055 17.7387L26.7397 17.5821L25.7146 15.1417ZM56.6268 30.1431L56.6697 30.0813L56.6262 30.0199L55.2374 28.0639L55.0533 27.805L55.0428 28.1223L54.9044 32.2727L54.8923 32.6351L55.0993 32.3376L56.6268 30.1431ZM56.6487 21.7168L56.6382 21.3843L56.4528 21.6602L54.9319 23.9208L54.8864 23.9885L54.9396 24.0506L56.5928 25.9701L56.7905 26.2L56.7809 25.8969L56.6487 21.7168Z" fill="#1F0231" stroke="#D8CDE0" stroke-opacity="0.1" stroke-width="0.693723"/>
<path d="M27.1263 1.84528L27.1513 1.63242L23.7133 1.14952L23.7083 1.14891L23.7034 1.1486L20.5005 1.00061L20.4854 1.21441L27.1263 1.84528Z" fill="#D8CDE0" fill-opacity="0.1" stroke="#D8CDE0" stroke-opacity="0.1" stroke-width="0.693723"/>
<path d="M54.653 36.4124L56.1694 34.2649L56.2083 34.2099L56.1755 34.1512L55.105 32.2242L54.9422 31.9313L54.9048 32.2644L54.4488 36.3299L52.9628 38.4345L52.9297 38.4811L52.9501 38.5343L53.6712 40.4371L53.805 40.7899L53.8766 40.4198L54.653 36.4124ZM36.706 9.35036L36.7734 9.2308L36.6411 9.19434L34.2746 8.5406L34.2137 8.36975L34.1396 8.50322L34.0225 8.47108L34.0753 8.61938L32.8064 10.9084L30.5468 10.496L30.4847 10.3368L30.4117 10.4712L30.299 10.4508L30.3509 10.5834L29.0752 12.9265L29.0035 13.0584L29.1515 13.0834L31.4795 13.4783L31.5403 13.6343L31.6142 13.5011L31.7257 13.52L31.6754 13.3905L32.9161 11.1525L35.1922 11.7556L35.2521 11.9236L35.3269 11.7914L35.4433 11.8223L35.3914 11.6765L36.706 9.35036ZM24.4613 17.5676L24.5525 17.3973L24.3597 17.41L22.3506 17.5438L22.2934 17.4004L22.2131 17.5527L22.1257 17.5586L22.1621 17.6494L20.9603 19.9292L20.8691 20.1019L21.0638 20.0858L23.0701 19.9221L23.1263 20.0623L23.2073 19.9106L23.2938 19.9039L23.2583 19.8152L24.4613 17.5676ZM56.7808 25.9037L56.7925 25.5367L56.5852 25.8397L55.0615 28.0654L55.0191 28.1269L55.0624 28.1881L56.4511 30.1437L56.6356 30.4033L56.6458 30.0854L56.7808 25.9037Z" fill="#1F0231" stroke="#D8CDE0" stroke-opacity="0.1" stroke-width="0.693723"/>
<path d="M27.2114 1.66211L27.0498 1.80175L31.706 8.22208L31.7307 8.25638L31.7721 8.26441L34.1724 8.73432L34.5249 8.80322L34.2678 8.55235L27.2114 1.66211Z" fill="#D8CDE0" fill-opacity="0.1" stroke="#D8CDE0" stroke-opacity="0.1" stroke-width="0.693723"/>
<path d="M56.6458 30.0937L56.4512 30.0205L54.9241 32.215L54.8857 32.27L54.9182 32.3283L55.9887 34.255L56.1518 34.5488L56.1889 34.2148L56.6458 30.0937Z" fill="#1F0231" stroke="#D8CDE0" stroke-opacity="0.1" stroke-width="0.693723"/>
<path d="M72.0128 35.3307L72.1559 35.1738L54.3482 13.9738L54.1699 14.09L60.7487 27.5059L60.7611 27.5309L60.784 27.5467L72.0128 35.3307Z" fill="#D8CDE0" fill-opacity="0.1" stroke="#D8CDE0" stroke-opacity="0.1" stroke-width="0.693723"/>
<path d="M29.2639 13.0291L29.3433 12.8835L29.178 12.8709L26.8961 12.6994L26.7246 12.6864L26.7886 12.8458L27.7945 15.3616L27.8792 15.5733L27.9882 15.3731L29.2639 13.0291ZM58.3146 23.6941L58.3616 23.6252L58.3066 23.5628L56.6225 21.6491L56.4254 21.4254L56.4347 21.7236L56.5669 25.9037L56.5774 26.2312L56.7625 25.9609L58.3146 23.6941Z" fill="#1F0231" stroke="#D8CDE0" stroke-opacity="0.1" stroke-width="0.693723"/>
<path d="M71.9815 35.298L72.1702 35.197L69.6205 29.7715L69.6161 29.7619L69.6103 29.7535L65.5015 24.1362L65.3232 24.2545L71.9815 35.298Z" fill="#D8CDE0" fill-opacity="0.1" stroke="#D8CDE0" stroke-opacity="0.1" stroke-width="0.693723"/>
<path d="M26.987 12.7664L26.9015 12.5526L26.793 12.7556L25.5495 15.0792L23.6003 15.1781L23.5438 15.0283L23.4613 15.1852L23.3757 15.1895L23.4103 15.2816L22.185 17.6058L22.0957 17.7755L22.287 17.7628L24.2945 17.6293L24.3498 17.7758L24.4332 17.6201L24.5179 17.6142L24.4842 17.5246L25.6777 15.2943L27.887 15.4287L28.056 15.4389L27.993 15.2819L26.987 12.7664ZM55.2747 38.4811L55.3377 38.6399L55.4026 38.3022L55.423 38.2738L55.4128 38.2485L56.1827 34.246L57.7274 32.0586L57.7667 32.0027L57.7327 31.9434L56.6653 30.0872L58.0963 28.0314L58.1915 28.1621L58.2004 27.8819L58.2258 27.8451L58.2023 27.8133L58.333 23.6369L58.3444 23.2708L58.1374 23.5729L56.6708 25.7146L56.5766 25.5855L56.5676 25.8654L56.5423 25.9021L56.5655 25.9336L56.4317 30.0742L55.9781 34.1638L54.5789 36.1457L54.5168 35.9891L54.4513 36.3262L54.4312 36.3549L54.4411 36.3796L53.6663 40.379L53.8584 40.4615L55.2747 38.4811ZM34.286 8.68116L34.3577 8.55232L34.2131 8.5239L31.8716 8.06542L31.8104 7.90167L31.7356 8.03885L31.6247 8.01722L31.6744 8.15099L30.3744 10.5395L30.3036 10.6696L30.4495 10.6961L32.7836 11.1219L32.8438 11.2828L32.9192 11.1469L33.0292 11.1667L32.9804 11.0363L34.286 8.68116Z" fill="#1F0231" stroke="#D8CDE0" stroke-opacity="0.1" stroke-width="0.693723"/>
<path d="M29.4036 7.95606L29.4271 8.01724L29.4926 8.02403L31.781 8.26594L32.0205 8.29097L31.8793 8.09633L27.223 1.67569L27.0361 1.77703L29.4036 7.95606Z" fill="#D8CDE0" fill-opacity="0.1" stroke="#D8CDE0" stroke-opacity="0.1" stroke-width="0.693723"/>
<path d="M58.1188 23.6301L57.9884 27.8118L56.4507 30.0208L56.4121 30.0764L56.4458 30.1354L57.5129 31.991L56.1066 33.9828L56.0442 33.8326L55.9811 34.1601L55.9604 34.1895L55.9706 34.2145L55.201 38.2157L53.6844 40.337L53.6563 40.3762L53.6671 40.4235L54.0916 42.2648L54.2992 42.2695L55.4 38.3059L56.836 36.2981L56.899 36.4504L56.9618 36.1219L56.9828 36.0929L56.9723 36.0676L57.6912 32.3005L57.7106 32.3348L57.7434 32.0361L59.3147 29.8107L59.3549 29.7538L59.3194 29.6942L58.2217 27.8513L59.767 25.6312L59.8112 25.5675L59.7646 25.5057L58.3116 23.5692L58.1284 23.3249L58.1188 23.6301ZM30.563 10.6421L30.6409 10.4987L30.4784 10.4839L28.2598 10.284L28.1999 10.1267L28.1223 10.2716L28.0222 10.2627L28.0661 10.3773L26.8223 12.7012L24.8737 12.7683L24.8181 12.6116L24.7331 12.7729L24.6491 12.776L24.6821 12.8696L23.4331 15.2393L23.3453 15.4058L23.5332 15.3962L25.5413 15.2943L25.5957 15.4478L25.6816 15.2872L25.7647 15.2828L25.7326 15.192L26.9492 12.9184L29.0937 13.0797L29.1524 13.2339L29.2305 13.0899L29.3297 13.0973L29.2874 12.9858L30.563 10.6421ZM22.3749 17.7056L22.4803 17.5061L22.2587 17.5508L20.4659 17.9129L20.4155 17.7646L20.3232 17.9417L20.2539 17.9556L20.2783 18.0276L19.0734 20.3425L18.9678 20.5455L19.1915 20.4967L20.9846 20.1043L21.0337 20.2492L21.1267 20.0731L21.1953 20.0583L21.1715 19.9885L22.3749 17.7056Z" fill="#1F0231" stroke="#D8CDE0" stroke-opacity="0.1" stroke-width="0.693723"/>
<path d="M27.3074 7.92205L27.312 8.02431H27.4143L29.5037 8.02462H29.6597L29.6038 7.8791L27.2363 1.70038L27.0293 1.74363L27.3074 7.92205Z" fill="#D8CDE0" fill-opacity="0.1" stroke="#D8CDE0" stroke-opacity="0.1" stroke-width="0.693723"/>
<path d="M55.7054 40.3348L55.7481 40.5075L55.8519 40.1319L55.8698 40.1071L55.8645 40.0861L56.9641 36.1075L56.7735 36.0166L55.3498 38.0075L55.3078 37.8373L55.2037 38.212L55.1858 38.2367L55.191 38.2574L54.0924 42.212L54.2827 42.3035L55.7054 40.3348ZM59.7854 25.5815L59.5908 25.5089L58.0062 27.7855L57.967 27.8424L58.0022 27.9017L59.1351 29.8039L59.2991 30.0795L59.3335 29.7603L59.7854 25.5815ZM31.8862 8.21033L31.9631 8.06945L31.8034 8.05246L29.515 7.81086L29.3447 7.79294L29.4028 7.9539L30.368 10.627L30.4489 10.8513L30.5629 10.6418L31.8862 8.21033Z" fill="#1F0231" stroke="#D8CDE0" stroke-opacity="0.1" stroke-width="0.693723"/>
<path d="M27.1369 1.84591L27.1462 1.63212L20.5049 1.00092L20.4932 1L20.4811 1.00155L14.873 1.73438L14.8879 1.94786L27.1369 1.84591Z" fill="#D8CDE0" fill-opacity="0.1" stroke="#D8CDE0" stroke-opacity="0.1" stroke-width="0.693723"/>
<path d="M23.6231 15.3391L23.726 15.1435L23.5088 15.1837L21.6248 15.5313L21.5059 15.5532L21.5423 15.6688L22.1781 17.6881L22.2554 17.9331L22.3752 17.7057L23.6231 15.3391ZM29.6047 7.881L29.5232 7.65485L29.4095 7.8671L28.0893 10.3341L28.013 10.4768L28.1743 10.4913L30.4596 10.6974L30.627 10.7125L30.5699 10.5544L29.6047 7.881Z" fill="#1F0231" stroke="#D8CDE0" stroke-opacity="0.1" stroke-width="0.693723"/>
<path d="M71.9762 35.2881L72.1727 35.2028L71.1013 32.5227L71.0991 32.5171L71.096 32.5119L69.618 29.7662L69.4268 29.8626L71.9762 35.2881Z" fill="#D8CDE0" fill-opacity="0.1" stroke="#D8CDE0" stroke-opacity="0.1" stroke-width="0.693723"/>
<path d="M58.4263 34.0739L58.4897 34.2195L58.5499 33.9009L58.5715 33.8707L58.5604 33.8453L59.3279 29.7919L60.9319 27.5205L60.9727 27.4627L60.9353 27.4024L59.77 25.5138L59.6059 25.2478L59.5722 25.5586L59.1233 29.71L57.6623 31.7794L57.5996 31.6357L57.539 31.9539L57.5174 31.9842L57.5282 32.0092L56.7565 36.0546L55.6557 40.0376L54.1087 42.1781L54.0862 42.2096L54.089 42.2482L54.2079 44.0092L54.4155 44.0389L55.8494 40.1356L57.4281 37.9507L57.4581 37.9096L57.4448 37.8605L56.9774 36.1L58.4263 34.0739ZM21.746 15.6045L21.6682 15.3576L21.5489 15.5872L20.3187 17.9504L18.6908 18.5562L18.6006 18.5899L18.6244 18.6829L19.0646 20.4183L19.1335 20.6908L19.2633 20.4414L20.466 18.1314L22.3012 17.761L22.418 17.7372L22.3822 17.6235L21.746 15.6045ZM28.2779 10.4354L28.3638 10.2745L28.1815 10.2775L26.1708 10.3128L26.1165 10.149L26.0287 10.3152L25.9462 10.3165L25.978 10.4116L24.7039 12.8279L24.6177 12.9914L24.8025 12.9852L26.8113 12.916L26.8644 13.0763L26.9528 12.911L27.0347 12.9083L27.0038 12.8162L28.2779 10.4354Z" fill="#1F0231" stroke="#D8CDE0" stroke-opacity="0.1" stroke-width="0.693723"/>
<path d="M25.4345 8.13032L25.3965 8.28232L25.5519 8.26255L27.4282 8.02342L27.5261 8.01106L27.5218 7.91251L27.2437 1.73378L27.0327 1.71277L25.4345 8.13032Z" fill="#D8CDE0" fill-opacity="0.1" stroke="#D8CDE0" stroke-opacity="0.1" stroke-width="0.693723"/>
<path d="M18.8565 18.7233L20.3179 18.1796L20.3555 18.3449L20.4714 18.1224L20.5205 18.1042L20.5085 18.0511L21.7155 15.7324L23.4525 15.412L23.4994 15.5736L23.5989 15.3851L23.6644 15.3731L23.6434 15.3008L24.7668 13.1699L24.8944 12.928L24.9951 12.7368L26.1601 10.5272L28.1056 10.4932L28.1578 10.6606L28.249 10.4907L28.329 10.4895L28.2996 10.3955L29.5988 7.9681L29.6831 7.81023H29.5042L27.4936 7.80992L27.4404 7.63907L27.3502 7.80992H27.2693L27.2992 7.90662L26.0254 10.3229L24.1998 10.5917L24.0809 10.6093L24.1121 10.7255L24.6654 12.7915L22.994 13.0695L22.9461 12.9042L22.8475 13.0936L22.7811 13.1047L22.8027 13.1792L21.5691 15.5495L20.0605 16.0821L20.0219 15.9128L19.9069 16.1362L19.8569 16.1538L19.8696 16.2088L18.7632 18.356L18.6334 18.6075L18.5068 18.8534L17.4035 20.9951L17.2734 21.2472L17.5376 21.144L19.2081 20.4918L19.2961 20.4572L19.273 20.3654L18.8565 18.7233ZM58.3489 33.8144L58.3325 33.8373L56.7742 36.0166L56.7448 36.0574L56.7578 36.1062L57.2255 37.8663L55.6675 40.0219L55.6443 40.054L55.6459 40.0701L54.2151 43.965L54.4023 44.0651L55.9866 41.8907L56.0104 41.8586L56.0089 41.8422L57.326 38.2441L57.3402 38.2985L57.4403 37.9349L58.9174 35.8906L58.9622 36.0475L59.0583 35.6959L59.0774 35.6697L59.0712 35.6483L60.0935 31.9082L60.1112 31.9465L60.1692 31.6372L60.1915 31.606L61.8051 29.3494L61.8419 29.2978L61.8147 29.241L60.9416 27.4126L60.8001 27.1163L60.7439 27.416L59.2479 29.5345L59.1852 29.3973L59.1268 29.7063L59.1046 29.7375L59.116 29.7625L58.3489 33.8144Z" fill="#1F0231" stroke="#D8CDE0" stroke-opacity="0.1" stroke-width="0.693723"/>
<path d="M20.5095 1.21409L20.4885 1.00092L17.542 1.19309L17.5346 1.1937L17.5275 1.19494L14.8662 1.73592L14.9014 1.94693L20.5095 1.21409Z" fill="#D8CDE0" fill-opacity="0.1" stroke="#D8CDE0" stroke-opacity="0.1" stroke-width="0.693723"/>
<path d="M24.3191 10.6702L24.2477 10.4039L24.1204 10.6483L22.8228 13.1412L22.7236 13.3315L22.9353 13.2966L24.8171 12.9836L24.9336 12.9645L24.903 12.8501L24.3191 10.6702ZM55.9974 41.8728L55.8136 41.7646L54.229 43.9387L54.2126 43.9616L54.2092 43.9894L54.013 45.6482L54.217 45.7059L55.9974 41.8728Z" fill="#1F0231" stroke="#D8CDE0" stroke-opacity="0.1" stroke-width="0.693723"/>
<path d="M72.02 35.3354L72.1346 35.1546L60.9057 27.3706L60.5742 27.1407L60.7479 27.505L61.6209 29.3334L61.6352 29.3633L61.6642 29.38L72.02 35.3354Z" fill="#D8CDE0" fill-opacity="0.1" stroke="#D8CDE0" stroke-opacity="0.1" stroke-width="0.693723"/>
<path d="M18.8242 18.7057L18.9969 18.3705L20.0588 16.3101L21.5643 15.7787L21.5998 15.9548L21.7203 15.7234L21.7682 15.7064L21.7574 15.6523L23.013 13.24L23.1353 13.0052L22.8841 13.089L21.3418 13.6024L21.3054 13.4223L21.1858 13.6547L21.137 13.6707L21.1484 13.727L19.9018 16.1464L18.51 16.9543L18.4504 16.9892L18.4572 17.0581L18.6154 18.5997L17.3882 19.3372L17.365 19.1565L17.2214 19.4373L17.1874 19.4577L17.1923 19.4942L15.9701 21.8839L15.7949 22.2265L16.1221 22.0239L17.4138 21.2231L17.4364 21.3995L17.5804 21.1196L17.614 21.0989L17.6094 21.0636L18.6592 19.0261L18.8242 18.7057ZM55.8339 43.4945L57.6082 39.6659L57.6261 39.6415L57.6245 39.6251L59.0559 35.6996L60.5698 33.6043L60.6155 33.7535L60.7076 33.4137L60.7273 33.3862L60.7208 33.3649L61.8216 29.3151L61.631 29.2249L60.1076 31.3551L60.0628 31.2084L59.9701 31.5473L59.9506 31.5748L59.9568 31.5958L58.8619 35.602L57.2553 37.8252L57.2316 37.8579L57.2331 37.874L55.8048 41.7767L55.7968 41.7878L55.7955 41.7986L54.0225 45.6154L54.2063 45.7239L55.8156 43.5291L55.8326 43.5056L55.8339 43.4945ZM27.5098 7.96716L27.6058 7.78488L27.4013 7.81083L25.6199 8.03791L25.5748 7.8547L25.4694 8.05707L25.4058 8.0651L25.425 8.14265L24.1206 10.6482L24.0239 10.8342L24.2312 10.8036L26.0141 10.5413L26.058 10.7205L26.1643 10.5191L26.227 10.5098L26.2088 10.4351L27.5098 7.96716Z" fill="#1F0231" stroke="#D8CDE0" stroke-opacity="0.1" stroke-width="0.693723"/>
<path d="M72.0312 35.3409L72.127 35.1497L61.7712 29.1943L61.5293 29.055L61.6158 29.3204L62.1886 31.0731L62.2037 31.1194L62.2482 31.1382L72.0312 35.3409Z" fill="#D8CDE0" fill-opacity="0.1" stroke="#D8CDE0" stroke-opacity="0.1" stroke-width="0.693723"/>
<path d="M57.4743 41.2558L59.2542 37.4066L59.2724 37.3813L60.9265 35.1114L60.9522 35.0765L60.9463 35.0338L60.7208 33.3946L62.377 31.1027L62.4089 31.0586L62.3919 31.0067L61.8194 29.254L61.7079 28.9132L61.6139 29.2589L60.5104 33.3198L58.8726 35.5863L58.8482 35.6199L58.8501 35.6363L57.4193 39.5606L57.4107 39.5724L57.4097 39.5832L55.6357 43.4111L54.0326 45.5972L54.023 45.6105L54.0177 45.626L53.495 47.1571L53.6893 47.2449L55.8183 43.5242L57.4558 41.291L57.4734 41.267L57.4743 41.2558ZM18.6699 17.0362L18.6329 16.6756L18.4679 16.9982L17.2151 19.4482L16.0667 20.5264L16.0355 20.5557L16.0343 20.5758L14.7979 23.0057L14.9675 23.1318L16.139 22.0103L16.1696 21.9809L16.1705 21.9615L17.3835 19.5897L18.7836 18.7484L18.842 18.7135L18.8349 18.6458L18.6699 17.0362ZM24.3102 10.7471L24.4291 10.5188L24.1832 10.5954L22.6477 11.0749L22.6134 10.8828L22.4889 11.1244L22.4413 11.1392L22.4515 11.1964L21.1799 13.6649L19.797 14.4385L19.7371 14.4719L19.7426 14.5405L19.8755 16.2317L19.9048 16.6073L20.0775 16.2724L21.3356 13.8305L22.8337 13.3315L22.8671 13.5191L22.9922 13.2787L23.0391 13.2632L23.0293 13.2079L24.3102 10.7471Z" fill="#1F0231" stroke="#D8CDE0" stroke-opacity="0.1" stroke-width="0.693723"/>
<path d="M72.046 35.3462L72.1158 35.1441L62.3329 30.9415L62.1543 30.8648L62.1846 31.0567L62.4466 32.7158L62.4574 32.7847L62.5247 32.8026L72.046 35.3462Z" fill="#D8CDE0" fill-opacity="0.1" stroke="#D8CDE0" stroke-opacity="0.1" stroke-width="0.693723"/>
<path d="M62.3913 31.0765L62.2034 30.9773L60.5221 33.304L60.4971 33.3386L60.5029 33.3812L60.734 35.0629L60.941 35.0848L62.3913 31.0765ZM19.9564 14.5234L19.9267 14.1456L19.7544 14.483L18.4768 16.9812L17.3396 18.027L17.3084 18.0554L17.3053 18.0974L17.1953 19.5053L17.3977 19.5624L18.6446 17.1239L20.0361 16.316L20.0945 16.282L20.0893 16.2146L19.9564 14.5234ZM25.6334 8.20569L25.7489 7.98355L25.5083 8.05337L23.9799 8.49703L23.9481 8.29281L23.8186 8.54399L23.7723 8.55727L23.7815 8.61597L22.4685 11.1642L22.3511 11.3919L22.5958 11.3156L24.1285 10.837L24.1597 11.0366L24.2898 10.7867L24.3355 10.7725L24.3265 10.7159L25.6334 8.20569ZM55.315 45.0374L55.3252 45.0235L55.3271 45.0176L57.4626 41.2808L57.2834 41.1644L55.6422 43.4024L55.6323 43.416L55.6305 43.4219L53.5036 47.1383L53.6828 47.255L55.315 45.0374Z" fill="#1F0231" stroke="#D8CDE0" stroke-opacity="0.1" stroke-width="0.693723"/>
<path d="M72.7846 40.3163L72.9975 40.2913L72.8202 37.8243L72.8195 37.815L72.8174 37.8064L72.1775 35.2167L71.9678 35.2597L72.7846 40.3163Z" fill="#D8CDE0" fill-opacity="0.1" stroke="#D8CDE0" stroke-opacity="0.1" stroke-width="0.693723"/>
<path d="M59.1295 39.0088L59.1477 38.9841L59.1486 38.9726L60.9335 35.103L62.6392 32.7621L62.6654 32.7263L62.6583 32.6821L62.3963 31.0233L62.1897 31.0035L60.745 34.9977L59.0751 37.2889L59.0569 37.3136L59.0563 37.3247L57.2727 41.1829L57.4562 41.291L59.1295 39.0088ZM17.5189 18.1141L17.3166 18.0572L16.0449 20.5557L16.2139 20.6827L17.3759 19.5918L17.4062 19.5634L17.4092 19.522L17.5189 18.1141ZM22.6593 11.2624L22.8175 10.9557L22.5131 11.1188L21.1108 11.872L21.0509 11.9044L21.0546 11.9724L21.1537 13.7486L21.1757 14.1416L21.3561 13.7915L22.6593 11.2624Z" fill="#1F0231" stroke="#D8CDE0" stroke-opacity="0.1" stroke-width="0.693723"/>
<path d="M25.5354 8.26345L25.6212 8.26561L25.6422 8.18219L27.2405 1.76465L27.2865 1.5799L27.1045 1.63643L7.93652 7.60199L7.96587 7.81145L25.5354 8.26345Z" fill="#D8CDE0" fill-opacity="0.1" stroke="#D8CDE0" stroke-opacity="0.1" stroke-width="0.693723"/>
<path d="M21.2682 11.9607L21.246 11.5652L21.0655 11.9178L19.754 14.483L19.5928 14.7981L19.9017 14.6254L21.3127 13.836L21.3711 13.8033L21.3674 13.7366L21.2682 11.9607Z" fill="#1F0231" stroke="#D8CDE0" stroke-opacity="0.1" stroke-width="0.693723"/>
<path d="M27.1684 1.84094L27.1357 1.63147L14.8867 1.73374L14.848 1.73404L14.8184 1.75907L7.89941 7.62267L8.00075 7.80649L27.1684 1.84094ZM72.0625 35.3492L72.1015 35.1392L62.5802 32.5956L62.4507 32.561L62.4455 32.6947L62.3843 34.2386L62.3803 34.339L62.4804 34.3495L72.0625 35.3492Z" fill="#D8CDE0" fill-opacity="0.1" stroke="#D8CDE0" stroke-opacity="0.1" stroke-width="0.693723"/>
<path d="M56.9805 42.774L56.99 42.7613L56.9919 42.7552L59.1329 39.0039L60.8362 36.6812L60.855 36.6555L60.8556 36.6441L62.6497 32.7439L62.4656 32.6357L60.7537 34.9853L60.7351 35.0107L60.7345 35.0221L58.95 38.8908L57.2832 41.1644L57.2727 41.1786L57.2709 41.1844L55.1388 44.9153L53.5103 47.1281L53.5078 47.1315L53.5057 47.1349L52.6443 48.5094L52.7562 48.5832L52.8213 48.6299L54.4733 46.3869L54.4758 46.3838L54.4767 46.3822L56.9805 42.774ZM16.4543 19.3616L16.0434 20.557L15.1808 21.8666L15.1731 21.8784L15.1712 21.8842L13.915 24.3561L14.1001 24.4634L14.9831 23.1129L14.9908 23.1015L14.9927 23.0959L16.2359 20.653L17.4986 18.1715L18.6358 17.126L18.6661 17.0982L18.668 17.0779L19.9449 14.5806L19.778 14.4521L18.6377 15.4775L18.6065 15.5053L18.6046 15.5266L17.3194 18.0517L16.4664 19.3372L16.4586 19.3486L16.4543 19.3616ZM23.9881 8.68302L24.141 8.3858L23.8438 8.53874L22.6009 9.17703L22.5923 8.93265L22.4199 9.27003L22.3902 9.28547L22.3914 9.32564L21.066 11.9177L20.9097 12.2236L21.2122 12.0611L22.4625 11.3894L22.4708 11.6276L22.6439 11.2921L22.6732 11.2761L22.6717 11.2374L23.9881 8.68302Z" fill="#1F0231" stroke="#D8CDE0" stroke-opacity="0.1" stroke-width="0.693723"/>
<path d="M72.0779 35.3496L72.0847 35.1361L62.5025 34.136L62.413 34.1267L62.3882 34.2136L61.9894 35.6174L61.9492 35.7599L62.0969 35.7537L72.0779 35.3496Z" fill="#D8CDE0" fill-opacity="0.1" stroke="#D8CDE0" stroke-opacity="0.1" stroke-width="0.693723"/>
<path d="M58.6777 40.4677L58.6885 40.4532L58.6904 40.447L60.8401 36.6759L62.5776 34.3062L62.5971 34.2797L62.5983 34.2469L62.6595 32.7031L62.4549 32.6543L60.6572 36.5631L58.9567 38.8821L58.9459 38.8967L58.944 38.9025L56.8002 42.6588L56.9797 42.7752L58.6777 40.4677ZM16.6568 19.4312L16.46 19.3477L15.1748 21.8771L15.3599 21.9846L16.2299 20.6632L16.2373 20.6521L16.2416 20.6391L16.6568 19.4312ZM21.2568 12.0154L21.0906 11.8859L19.962 12.8758L19.9311 12.903L19.9286 12.9249L18.6137 15.5084L18.7809 15.6366L19.9212 14.6115L19.9515 14.5846L19.954 14.5636L21.2568 12.0154Z" fill="#1F0231" stroke="#D8CDE0" stroke-opacity="0.1" stroke-width="0.693723"/>
<path d="M14.9354 1.93641L14.8489 1.74084L12.5098 2.6402L12.4996 2.64422L12.4903 2.65009L10.5195 3.91957L10.6258 4.10556L14.9354 1.93641Z" fill="#D8CDE0" fill-opacity="0.1" stroke="#D8CDE0" stroke-opacity="0.1" stroke-width="0.693723"/>
<path d="M56.1588 44.0985L56.1612 44.0951L56.1622 44.0938L58.6792 40.4652L58.505 40.3407L56.8066 42.6483L56.8042 42.6517L56.8036 42.6529L54.2989 46.2624L54.4731 46.3869L56.1588 44.0985ZM18.8043 15.6057L18.6199 15.4973L17.7777 16.7556L17.7703 16.767L17.7656 16.7797L17.3105 18.0702L17.5073 18.1545L18.8043 15.6057Z" fill="#1F0231" stroke="#D8CDE0" stroke-opacity="0.1" stroke-width="0.693723"/>
<path d="M71.5986 44.6976L71.8093 44.7294L72.9942 40.3268L73 40.3046L72.9963 40.282L72.1795 35.2254L71.9666 35.2384L71.5986 44.6976Z" fill="#D8CDE0" fill-opacity="0.1" stroke="#D8CDE0" stroke-opacity="0.1" stroke-width="0.693723"/>
<path d="M60.4102 38.1131L60.4213 38.098L60.4232 38.0918L62.5843 34.2957L62.4045 34.1793L60.6632 36.5542L60.6524 36.5693L60.6506 36.5752L58.4981 40.3512L58.6776 40.4677L60.4102 38.1131ZM17.9679 16.8511L17.7715 16.7667L16.46 19.3477L16.6447 19.4555L17.5011 18.165L17.5085 18.1539L17.5129 18.1416L17.9679 16.8511ZM22.5948 9.39823L22.4298 9.26816L21.3136 10.2213L21.2824 10.2478L21.2771 10.2883L21.055 11.9523L21.2567 12.0154L22.5948 9.39823Z" fill="#1F0231" stroke="#D8CDE0" stroke-opacity="0.1" stroke-width="0.693723"/>
<path d="M72.0899 35.3487L72.0693 35.1355L62.0882 35.5396L62.0308 35.5421L62.0008 35.5909L61.2494 36.827L61.1299 37.0235L61.357 36.9889L72.0899 35.3487Z" fill="#D8CDE0" fill-opacity="0.1" stroke="#D8CDE0" stroke-opacity="0.1" stroke-width="0.693723"/>
<path d="M21.49 10.3167L21.2882 10.254L19.9375 12.9079L20.1037 13.0371L21.2323 12.0472L21.2626 12.0206L21.2678 11.9808L21.49 10.3167ZM57.8793 41.7634L57.8817 41.76L57.8827 41.7585L60.4124 38.1107L60.2381 37.9862L58.5055 40.3407L58.5027 40.3441L58.5021 40.3456L55.9848 43.974L56.1593 44.0988L57.8793 41.7634Z" fill="#1F0231" stroke="#D8CDE0" stroke-opacity="0.1" stroke-width="0.693723"/>
<path d="M23.8862 8.74078L23.9048 8.74202L23.9224 8.73677L25.5678 8.25913L25.5407 8.04904L7.97118 7.59705L7.96191 7.81115L23.8862 8.74078Z" fill="#D8CDE0" fill-opacity="0.1" stroke="#D8CDE0" stroke-opacity="0.1" stroke-width="0.693723"/>
<path d="M20.1282 13.0052L19.944 12.8965L19.117 14.1212L19.1096 14.1323L19.1071 14.1385L17.7715 16.7667L17.9562 16.8749L18.7981 15.6165L18.8055 15.6057L18.8077 15.5998L20.1282 13.0052ZM62.1787 35.7101L62.1901 35.6947L62.1954 35.6761L62.5942 34.2719L62.398 34.1898L60.231 37.9967L60.4105 38.1131L62.1787 35.7101Z" fill="#1F0231" stroke="#D8CDE0" stroke-opacity="0.1" stroke-width="0.693723"/>
<path d="M72.0977 35.3471L72.0578 35.1367L61.3252 36.7769L61.2924 36.7819L61.2683 36.8041L60.1484 37.8413L59.8555 38.1122L60.2448 38.0245L72.0977 35.3471Z" fill="#D8CDE0" fill-opacity="0.1" stroke="#D8CDE0" stroke-opacity="0.1" stroke-width="0.693723"/>
<path d="M59.6351 39.3799L59.6379 39.3762L59.6385 39.3749L62.1809 35.708L62.0066 35.5832L60.2382 37.9862L60.2354 37.9899L60.2348 37.9911L57.7051 41.6389L57.8793 41.7634L59.6351 39.3799ZM21.4792 10.3514L21.2951 10.2423L20.4841 11.4315L20.4767 11.4423L20.472 11.4549L19.9326 12.9194L20.1285 13.0053L21.4792 10.3514Z" fill="#1F0231" stroke="#D8CDE0" stroke-opacity="0.1" stroke-width="0.693723"/>
<path d="M22.488 9.456L22.5201 9.45971L22.5488 9.44488L23.9422 8.72935L24.2913 8.54985L23.8993 8.52698L7.97526 7.59735L7.95703 7.81084L22.488 9.456Z" fill="#D8CDE0" fill-opacity="0.1" stroke="#D8CDE0" stroke-opacity="0.1" stroke-width="0.693723"/>
<path d="M20.673 11.5288L20.4768 11.4432L19.1104 14.1326L19.2948 14.241L20.1219 13.0164L20.129 13.0055L20.1336 12.9935L20.673 11.5288Z" fill="#1F0231" stroke="#D8CDE0" stroke-opacity="0.1" stroke-width="0.693723"/>
<path d="M14.9565 1.92251L14.8391 1.74518L10.5298 3.91402L10.5057 3.92607L10.4903 3.948L7.88086 7.64245L8.03781 7.78611L14.9565 1.92251ZM71.6022 44.6737L71.8045 44.7423L72.6675 42.6455L72.6724 42.6328L72.6742 42.6195L72.9965 40.3138L72.787 40.2712L71.6022 44.6737ZM72.1005 35.3462L72.0499 35.1379L60.1969 37.8153L60.1827 37.8184L60.17 37.8252L58.6661 38.6291L58.7436 38.8271L72.1005 35.3462Z" fill="#D8CDE0" fill-opacity="0.1" stroke="#D8CDE0" stroke-opacity="0.1" stroke-width="0.693723"/>
<path d="M61.4267 36.9463L61.4295 36.9425L61.432 36.9385L62.1837 35.7024L62.0042 35.5856L59.46 39.255L59.6345 39.3799L61.4267 36.9463Z" fill="#1F0231" stroke="#D8CDE0" stroke-opacity="0.1" stroke-width="0.693723"/>
<path d="M21.3632 10.4079L21.4139 10.4175L21.4531 10.3841L22.5694 9.43098L22.7569 9.27094L22.5119 9.24314L7.98068 7.59766L7.94824 7.80929L21.3632 10.4079Z" fill="#D8CDE0" fill-opacity="0.1" stroke="#D8CDE0" stroke-opacity="0.1" stroke-width="0.693723"/>
<path d="M3.07926 18.7514L2.8803 18.6723L1.69701 21.2833L1.69299 21.2926L1.69052 21.3028L1.04883 23.9755L1.25428 24.0354L3.07926 18.7514Z" fill="#1F0231" stroke="#D8CDE0" stroke-opacity="0.1" stroke-width="0.693723"/>
<path d="M72.1006 35.3462L72.0463 35.1389H72.0459L58.6896 38.6198L58.6875 38.6205L56.7884 39.1534L56.7868 39.154L56.843 39.3607L56.8446 39.3601L72.1003 35.3462H72.1006ZM20.5412 11.5943L20.6163 11.6168L20.6604 11.5523L21.4718 10.3631L21.5635 10.2284L21.4035 10.1975L7.98879 7.59891L7.9375 7.80683L20.5412 11.5943Z" fill="#D8CDE0" fill-opacity="0.1" stroke="#D8CDE0" stroke-opacity="0.1" stroke-width="0.693723"/>
<path d="M62.7229 56.0336L62.574 55.8813L60.4688 57.5057L60.4511 57.481L60.3705 57.5814L60.2988 57.6367L60.3118 57.6547L58.5319 59.8689L58.6815 60.0203L60.8114 58.3554L60.8284 58.3792L60.9093 58.2791L60.9804 58.2234L60.968 58.2061L62.7229 56.0336ZM4.28741 16.0855L4.08845 16.0061L2.88013 18.6724L2.87581 18.6819L2.87488 18.6869L1.05176 23.9653L1.25042 24.0447L2.45842 21.3927L2.46274 21.3831L2.46397 21.3779L4.28741 16.0855Z" fill="#1F0231" stroke="#D8CDE0" stroke-opacity="0.1" stroke-width="0.693723"/>
<path d="M10.666 4.0716L10.5001 3.93658L8.95257 5.58793L8.94237 5.59844L8.93557 5.61172L7.87402 7.65482L8.05661 7.76604L10.666 4.0716Z" fill="#D8CDE0" fill-opacity="0.1" stroke="#D8CDE0" stroke-opacity="0.1" stroke-width="0.693723"/>
<path d="M64.567 53.7501L64.4187 53.5975L62.2517 55.2464L62.1807 55.3004L62.2211 55.3802L62.544 56.0147L62.6191 56.1621L62.7229 56.0336L64.567 53.7501Z" fill="#1F0231" stroke="#D8CDE0" stroke-opacity="0.1" stroke-width="0.693723"/>
<path d="M20.055 13.013L20.1622 13.0587L20.1989 12.9484L20.6741 11.5257L20.7093 11.4209L20.6034 11.3891L7.99967 7.60168L7.92676 7.80281L20.055 13.013Z" fill="#D8CDE0" fill-opacity="0.1" stroke="#D8CDE0" stroke-opacity="0.1" stroke-width="0.693723"/>
<path d="M5.52195 13.3624L5.32298 13.2833L4.08934 16.0061L4.0847 16.016L4.08223 16.0265L3.49121 18.6146L3.69728 18.6733L5.52195 13.3624Z" fill="#1F0231" stroke="#D8CDE0" stroke-opacity="0.1" stroke-width="0.693723"/>
<path d="M61.8721 49.6973L62.0092 49.8536L71.7548 44.7967L71.8101 44.768L71.8123 44.7056L72.1802 35.2467L72.1945 34.8809L71.9853 35.1812L61.8721 49.6973Z" fill="#D8CDE0" fill-opacity="0.1" stroke="#D8CDE0" stroke-opacity="0.1" stroke-width="0.693723"/>
<path d="M3.6924 18.6832L3.69703 18.673L3.69951 18.6625L4.29054 16.0744L4.08477 16.0157L2.26134 21.3083L1.0555 23.9561L1.04623 23.9764L1.04592 23.999L1.00391 27.0443L1.21585 27.0687L2.46308 21.3822L3.6924 18.6832ZM62.4121 55.2829L62.337 55.1352L62.2332 55.2643L60.3625 57.5913L60.5117 57.7433L62.705 56.0509L62.7754 55.9968L62.735 55.9174L62.4121 55.2829ZM66.4507 51.4182L66.303 51.2652L64.1639 52.8678L64.1011 52.9147L64.1271 52.9889L64.3826 53.7183L64.4462 53.9L64.567 53.7501L66.4507 51.4182Z" fill="#1F0231" stroke="#D8CDE0" stroke-opacity="0.1" stroke-width="0.693723"/>
<path d="M19.9379 14.6587L20.0869 14.744L20.098 14.5725L20.2043 12.9212L20.2092 12.8458L20.1397 12.8158L8.01118 7.60568L7.91602 7.79723L19.9379 14.6587Z" fill="#D8CDE0" fill-opacity="0.1" stroke="#D8CDE0" stroke-opacity="0.1" stroke-width="0.693723"/>
<path d="M6.78201 10.5809L6.58305 10.5021L5.32283 13.2833L5.31819 13.2935L5.31695 13.2984L3.49414 18.6038L3.6928 18.6831L4.95394 15.914L4.95857 15.9038L4.95981 15.8989L6.78201 10.5809ZM60.53 57.7257L60.4018 57.561L57.5672 58.8667L57.4251 58.9322L57.5375 59.0409L58.5413 60.0129L58.6257 60.0947L58.6995 60.003L60.53 57.7257ZM64.3295 52.9181L64.2659 52.7361L64.1451 52.8863L62.2333 55.2643L62.3819 55.4169L64.5489 53.768L64.611 53.7211L64.5854 53.6475L64.3295 52.9181Z" fill="#1F0231" stroke="#D8CDE0" stroke-opacity="0.1" stroke-width="0.693723"/>
<path d="M61.8639 49.8057L61.9439 49.9692L62.0481 49.82L72.1613 35.3039L72.3278 35.0647L72.0461 35.1389L56.7885 39.1534L56.6621 39.1868L56.7196 39.3042L61.8639 49.8057Z" fill="#D8CDE0" fill-opacity="0.1" stroke="#D8CDE0" stroke-opacity="0.1" stroke-width="0.693723"/>
<path d="M3.69997 18.6612L3.49791 18.5942L2.26365 21.3037L2.25407 21.3247V21.3364L1.00684 27.023L1.20889 27.0907L2.44779 24.4028L2.45767 24.3815V24.3697L3.69997 18.6612ZM57.6868 58.8871L57.6019 58.8049L57.5283 58.8973L55.6811 61.2196L55.8106 61.3831L58.6616 60.0327L58.8015 59.9665L58.6903 59.8587L57.6868 58.8871ZM68.3753 49.0358L68.2283 48.882L66.119 50.4363L66.0628 50.4777L66.078 50.546L66.263 51.3743L66.3115 51.5909L66.4512 51.4182L68.3753 49.0358ZM8.07009 7.73885L7.87082 7.66006L6.58311 10.5018L6.57847 10.5123L6.576 10.5237L6.04059 13.017L6.24697 13.0741L8.07009 7.73885Z" fill="#1F0231" stroke="#D8CDE0" stroke-opacity="0.1" stroke-width="0.693723"/>
<path d="M20.2248 16.5261L20.4324 16.6731L20.3925 16.422L20.0959 14.5491L20.0879 14.4981L20.0431 14.4728L8.02117 7.61127L7.90625 7.79169L20.2248 16.5261Z" fill="#D8CDE0" fill-opacity="0.1" stroke="#D8CDE0" stroke-opacity="0.1" stroke-width="0.693723"/>
<path d="M6.2428 13.084L6.24774 13.0735L6.25021 13.0621L6.78532 10.5688L6.57924 10.5114L4.75488 15.8349L4.95385 15.914L6.2428 13.084ZM62.4004 55.3987L62.2731 55.2337L59.457 56.4921L59.3235 56.5517L59.4202 56.6608L60.3662 57.7294L60.4503 57.8246L60.53 57.7257L62.4004 55.3987Z" fill="#1F0231" stroke="#D8CDE0" stroke-opacity="0.1" stroke-width="0.693723"/>
<path d="M68.1064 47.9594L68.243 48.1241L70.3207 46.6207L70.3328 46.6121L70.342 46.6004L71.7895 44.768L71.6316 44.6237L68.1064 47.9594Z" fill="#D8CDE0" fill-opacity="0.1" stroke="#D8CDE0" stroke-opacity="0.1" stroke-width="0.693723"/>
<path d="M66.3022 50.5673L68.2075 49.1637L68.2159 49.2332L68.3666 49.0463L68.4059 49.0176L68.4037 49.0006L70.3418 46.6013L70.1953 46.4471L68.265 47.8436L68.2564 47.7713L68.1059 47.9588L68.0663 47.9872L68.0685 48.0052L66.2386 50.2818L66.1162 50.4342L63.3656 51.58L63.2473 51.6295L63.3168 51.737L64.07 52.9051L61.4665 54.0303L61.4338 53.9874L61.3646 54.0745L61.2638 54.1178L61.296 54.1604L59.4963 56.4232L59.4169 56.523L57.5512 58.8682L54.1348 59.6857L54.0912 59.6468L54.0436 59.7073L53.8808 59.7466L53.9587 59.8161L52.1664 62.1076L51.9737 62.3544L52.2774 62.2775L55.7358 61.4041L55.7781 61.4418L55.8263 61.3812L55.9866 61.3408L55.9116 61.2737L57.68 59.0505L60.4915 57.7557L60.6225 57.6954L60.5267 57.5873L59.6777 56.628L62.2831 55.4642L62.3146 55.5056L62.3844 55.4188L62.4839 55.3743L62.453 55.3335L64.219 53.1362L64.3036 53.0312L66.432 51.4367L66.4873 51.395L66.4721 51.3273L66.3022 50.5673ZM3.48799 18.6158V18.6272L2.24817 24.3237L2.23859 24.3447L1.01421 27.0011L1 27.032L1.00618 27.0653L1.64077 30.4694L1.73438 30.4654L1.84282 30.4953L3.12003 27.7787L3.13486 27.7469L3.13115 27.7277L3.72187 21.6386L3.72434 21.6333L5.00926 18.846L5.01947 18.8237L5.01916 18.8114L6.24785 13.0735L7.5609 10.1907L7.56585 10.1796L7.56832 10.1678L8.07345 7.72588L7.86707 7.66965L6.0458 13L4.75901 15.8254L4.74882 15.8473L3.49787 18.5942L3.48799 18.6158Z" fill="#1F0231" stroke="#D8CDE0" stroke-opacity="0.1" stroke-width="0.693723"/>
<path d="M8.07533 7.71196L7.86339 7.68262L7.35794 10.1246L7.35547 10.1375L7.35609 10.1511L7.48369 12.9938L7.69779 12.9966L8.07533 7.71196Z" fill="#D8CDE0" fill-opacity="0.1" stroke="#D8CDE0" stroke-opacity="0.1" stroke-width="0.693723"/>
<path d="M7.56841 10.1684L7.36605 10.102L6.04837 12.9954L6.03786 13.0179L6.03848 13.03L4.80762 18.7786L5.00967 18.846L6.33384 15.973L6.34465 15.9499L6.34403 15.9378L7.56841 10.1684ZM59.5848 56.6567L59.7745 56.4185L59.4776 56.4853L55.9784 57.2737L55.7868 57.3167L55.9268 57.4545L57.5374 59.0403L57.6223 59.124L57.6965 59.0307L59.5848 56.6567ZM63.4973 51.6211L63.4164 51.4954L63.3234 51.6125L61.3483 54.0955L61.4746 54.2605L64.2716 53.0519L64.3874 53.0018L64.3189 52.8956L63.4973 51.6211Z" fill="#1F0231" stroke="#D8CDE0" stroke-opacity="0.1" stroke-width="0.693723"/>
<path d="M61.9111 49.6636L61.989 49.862L68.2091 48.1405L68.2348 48.1334L68.2542 48.1152L71.7794 44.7794L71.6564 44.6064L61.9111 49.6636Z" fill="#D8CDE0" fill-opacity="0.1" stroke="#D8CDE0" stroke-opacity="0.1" stroke-width="0.693723"/>
<path d="M5.01846 18.8114L4.81456 18.7564L3.51974 21.5657L3.5046 21.5978L3.50862 21.6167L2.91791 27.7046L1.64904 30.4042L1.62988 30.445L1.64533 30.4873L3.03253 34.2253L3.24014 34.1861L3.13046 27.7565L4.42589 25.0006L4.44135 24.9679L4.43733 24.9487L5.01846 18.8114ZM56.0765 57.3018L55.9909 57.2175L55.917 57.312L54.05 59.6996L50.0309 59.978L49.7868 59.995L49.9648 60.1627L52.1772 62.2519L52.2628 62.3325L52.3354 62.2398L54.1662 59.8986L57.637 59.0684L57.8248 59.0233L57.6873 58.8877L56.0765 57.3018ZM68.2637 48.1043L68.5198 47.7861L68.1404 47.9378L65.476 49.004L65.4442 48.9456L65.3614 49.0497L65.2758 49.084L65.2996 49.1276L63.3229 51.6125L63.4481 51.7781L66.1347 50.6588L66.1653 50.715L66.2487 50.6112L66.3334 50.576L66.3108 50.5342L68.2637 48.1043ZM61.5156 54.229L61.7009 53.9961L61.4096 54.0572L57.9197 54.7922L57.7352 54.8312L57.8628 54.9696L59.4218 56.6626L59.5065 56.7547L59.5843 56.6567L61.5156 54.229ZM7.68812 13.034L7.69924 13.0102L7.698 12.9842L7.5701 10.1416L7.35847 10.124L6.13131 15.906L6.33337 15.973L7.68812 13.034Z" fill="#1F0231" stroke="#D8CDE0" stroke-opacity="0.1" stroke-width="0.693723"/>
<path d="M61.8734 49.8215L62.0563 49.7115L56.9119 39.2099L56.8792 39.1432L56.8053 39.1503L54.4968 39.3752L54.3105 39.3931L54.4205 39.5448L61.8734 49.8215Z" fill="#D8CDE0" fill-opacity="0.1" stroke="#D8CDE0" stroke-opacity="0.1" stroke-width="0.693723"/>
<path d="M6.34273 15.9378L6.13882 15.8831L4.81434 18.7564L4.7992 18.7894L4.80322 18.808L4.22393 24.9261L2.92572 27.6876L2.90625 27.7289L2.91583 27.754L3.02582 34.1898L3.22942 34.2345L4.55204 31.4975L4.57243 31.4558L4.56255 31.4302L4.43649 24.9777L5.7619 22.1579L5.77765 22.1246L5.77332 22.1054L6.34273 15.9378ZM58.0205 54.8243L57.9349 54.7316L57.857 54.8311L55.9168 57.312L55.7318 57.5487L56.0247 57.4826L59.5238 56.6944L59.7049 56.6536L59.5791 56.5174L58.0205 54.8243ZM50.1116 60.007L50.0251 59.9251L49.9531 60.0197L48.1037 62.4406L47.9573 62.6322L48.1977 62.6127L52.2595 62.2806L52.4992 62.2611L52.3243 62.0958L50.1116 60.007ZM63.4905 51.7456L63.6715 51.5182L63.3861 51.5739L59.9069 52.2526L59.729 52.2872L59.8451 52.4266L61.3491 54.2308L61.4335 54.3319L61.5153 54.229L63.4905 51.7456Z" fill="#1F0231" stroke="#D8CDE0" stroke-opacity="0.1" stroke-width="0.693723"/>
<path d="M8.07407 7.68604L7.86151 7.69654L7.48397 12.9815L7.48242 13.004L7.49014 13.0253L9.96516 19.8794L10.1715 19.8251L8.07407 7.68604ZM54.5942 39.4188L54.5639 39.3771L54.5123 39.3746L51.8776 39.2569L51.6079 39.2449L51.796 39.4386L61.8833 49.8333L62.047 49.6958L54.5942 39.4188Z" fill="#D8CDE0" fill-opacity="0.1" stroke="#D8CDE0" stroke-opacity="0.1" stroke-width="0.693723"/>
<path d="M56.0857 57.4443L56.2315 57.2577L55.9955 57.2713L51.9732 57.4974L51.9204 57.4443L51.8756 57.503L51.6874 57.5135L51.7891 57.6164L49.953 60.0197L49.8093 60.2082L50.0457 60.1918L54.0633 59.9134L54.1143 59.965L54.16 59.9066L54.3457 59.894L54.2474 59.7948L56.0857 57.4443ZM7.69764 12.9985L7.49342 12.9441L6.13866 15.8832L6.12322 15.9171L6.12785 15.936L5.56 22.0838L4.23213 24.9092L4.21204 24.9515L4.22224 24.9765L4.34829 31.4274L3.03648 34.1413L3.0127 34.191L3.03895 34.2392L5.17721 38.1462L5.37772 38.0816L4.5661 31.4695L5.90572 28.6972L5.92642 28.6546L5.91591 28.6286L5.77287 22.1354L7.12947 19.2495L7.14554 19.2152L7.1406 19.1957L7.69764 12.9985ZM60.0097 52.2894L59.9247 52.1875L59.8431 52.2919L57.8572 54.8312L57.6762 55.0626L57.9638 55.002L61.4537 54.267L61.628 54.2303L61.514 54.0937L60.0097 52.2894Z" fill="#1F0231" stroke="#D8CDE0" stroke-opacity="0.1" stroke-width="0.693723"/>
<path d="M68.1515 47.9338L61.9926 49.6383L51.9495 39.2893L51.9247 39.2637L51.8895 39.2581L49.0475 38.7962L48.6631 38.7338L48.9613 38.9841L61.8909 49.8407L61.9573 49.7696L61.9786 49.8641L65.446 49.2441L65.4568 49.2422L65.467 49.2382L68.2198 48.1368L68.1515 47.9338ZM20.3922 16.4201L20.3845 16.3765L20.3486 16.3512L8.0301 7.61682L7.875 7.75739L23.4743 35.0814L23.6729 35.0097L20.3922 16.4201Z" fill="#D8CDE0" fill-opacity="0.1" stroke="#D8CDE0" stroke-opacity="0.1" stroke-width="0.693723"/>
<path d="M50.1235 60.1498L50.244 59.9919L50.0459 59.978L45.6449 59.6663L45.5856 59.6039L45.5448 59.6591L45.3282 59.644L45.4561 59.7787L43.6766 62.1774L43.5586 62.3365L43.7563 62.3483L48.1403 62.6103L48.1978 62.6708L48.2395 62.6161L48.4533 62.6288L48.3294 62.4984L50.1235 60.1498ZM65.5114 49.2055L65.6882 48.9833L65.4086 49.0334L62.0061 49.6417L61.9619 49.5827L61.901 49.6602L61.7697 49.6837L61.825 49.7576L59.8431 52.2919L59.6661 52.518L59.9478 52.463L63.3614 51.7973L63.4044 51.8541L63.4659 51.7769L63.5953 51.7515L63.5422 51.6808L65.5114 49.2055ZM58.0261 54.9631L58.1692 54.7802L57.9372 54.7901L53.9134 54.9618L53.8606 54.9047L53.8136 54.9662L53.6326 54.9739L53.7283 55.0774L51.8456 57.5422L51.7044 57.7273L51.9367 57.7143L55.9568 57.4878L56.0081 57.5434L56.0557 57.4823L56.2342 57.4724L56.1419 57.3723L58.0261 54.9631ZM6.742 35.3959L6.76733 35.3449L6.74972 35.3137L5.91957 28.6688L7.29132 25.8305L7.31202 25.7872L7.3012 25.7613L7.13993 19.2266L8.52867 16.2724L8.54535 16.2372L8.53546 16.1998L7.6945 12.962L7.48411 12.9793L6.92737 19.1753L5.56799 22.0668L5.5479 22.1098L5.55841 22.1351L5.70145 28.6271L4.35936 31.4046L4.33496 31.4549L4.35195 31.4852L5.1648 38.1076L5.20806 38.4601L5.36716 38.1425L6.742 35.3959Z" fill="#1F0231" stroke="#D8CDE0" stroke-opacity="0.1" stroke-width="0.693723"/>
<path d="M49.0995 38.82L49.0813 38.8046L49.0581 38.7984L46.0613 38.0059L45.9708 38.1959L61.8973 49.845L62.0292 49.6766L49.0995 38.82ZM21.1267 18.5055L21.1255 18.4956L21.1221 18.4863L20.388 16.4031L20.1816 16.4571L23.4621 35.0446L23.4624 35.0468L23.674 35.0119L23.6734 35.0097L21.1267 18.5055Z" fill="#D8CDE0" fill-opacity="0.1" stroke="#D8CDE0" stroke-opacity="0.1" stroke-width="0.693723"/>
<path d="M6.75118 35.3252L6.68693 35.0276L6.55036 35.2998L5.17553 38.0467L5.14648 38.1048L5.18449 38.1573L7.98977 42.0359L8.18132 41.9503L6.75118 35.3252ZM52.0163 57.6723L52.1353 57.5166L51.94 57.5005L47.4815 57.1335L47.2121 57.1112L47.3932 57.312L49.959 60.1566L50.0452 60.2523L50.1237 60.1498L52.0163 57.6723Z" fill="#1F0231" stroke="#D8CDE0" stroke-opacity="0.1" stroke-width="0.693723"/>
<path d="M46.0967 38.0229L46.0844 38.014L46.0696 38.0087L42.9766 36.9045L42.8809 37.0946L61.9002 49.8478L62.0232 49.6723L46.0967 38.0229Z" fill="#D8CDE0" fill-opacity="0.1" stroke="#D8CDE0" stroke-opacity="0.1" stroke-width="0.693723"/>
<path d="M60.0121 52.4238L60.1527 52.2443L59.9247 52.2508L55.8493 52.367L55.6241 52.3731L55.7714 52.544L57.8609 54.9671L57.9461 55.066L58.0265 54.9631L60.0121 52.4238ZM47.5524 57.1687L47.4646 57.0714L47.3868 57.1764L45.5099 59.7064L45.3937 59.8634L45.5884 59.8773L50.0311 60.1918L50.2962 60.2106L50.1182 60.0129L47.5524 57.1687ZM8.1499 32.5835L8.17554 32.5319L8.15762 32.5007L7.30121 25.7705L7.2558 25.4121L7.09854 25.7375L5.7132 28.6039L5.68848 28.6549L5.70609 28.6855L6.53995 35.361L6.58382 35.712L6.74231 35.3959L8.1499 32.5835Z" fill="#1F0231" stroke="#D8CDE0" stroke-opacity="0.1" stroke-width="0.693723"/>
<path d="M7.69183 12.9527L7.4873 13.0161L8.32827 16.2536L8.33043 16.2625L8.33414 16.2709L9.96849 19.8875L10.1668 19.8068L7.69183 12.9527Z" fill="#D8CDE0" fill-opacity="0.1" stroke="#D8CDE0" stroke-opacity="0.1" stroke-width="0.693723"/>
<path d="M8.5392 16.2236L8.3353 16.181L6.93574 19.1583L6.91504 19.2019L6.93451 19.2464L8.51542 22.8917L8.72086 22.846L8.5392 16.2236Z" fill="#1F0231" stroke="#D8CDE0" stroke-opacity="0.1" stroke-width="0.693723"/>
<path d="M43.0005 36.9163L42.9927 36.9113L42.9844 36.9073L39.8569 35.5161L39.7558 35.7045L61.9006 49.8477L61.9028 49.849L62.0202 49.6695L62.018 49.6682L43.0005 36.9163ZM22.3319 20.7899L22.33 20.7689L22.3202 20.75L21.1156 18.4718L20.915 18.5383L23.462 35.0446L23.6746 35.0184L22.3319 20.7899Z" fill="#D8CDE0" fill-opacity="0.1" stroke="#D8CDE0" stroke-opacity="0.1" stroke-width="0.693723"/>
<path d="M8.71028 22.8957L8.7316 22.8512L8.71214 22.8064L7.13123 19.1611L6.92578 19.2065L7.08828 25.7866L7.29189 25.8304L8.71028 22.8957ZM55.9339 52.404L55.8477 52.3039L55.7677 52.409L53.7836 55.006L53.6449 55.1877L53.8735 55.1781L57.9467 55.0042L58.1679 54.9946L58.0233 54.8271L55.9339 52.404ZM45.6822 59.834L45.7839 59.6971L45.6164 59.665L40.8901 58.7576L40.5892 58.6998L40.7884 58.9328L43.6818 62.3109L43.7692 62.4128L43.8492 62.305L45.6822 59.834Z" fill="#1F0231" stroke="#D8CDE0" stroke-opacity="0.1" stroke-width="0.693723"/>
<path d="M39.8714 35.5238L39.8676 35.5217L39.8639 35.5195L36.7664 33.8709L36.6592 34.0566L61.903 49.849L61.9036 49.8496L62.0183 49.6683L62.0173 49.6677L39.8714 35.5238Z" fill="#D8CDE0" fill-opacity="0.1" stroke="#D8CDE0" stroke-opacity="0.1" stroke-width="0.693723"/>
<path d="M40.9514 58.7932L40.8624 58.6894L40.783 58.8006L38.9772 61.3207L38.8789 61.4582L39.0451 61.4885L43.7443 62.3467L44.0412 62.4008L43.8447 62.1716L40.9514 58.7932Z" fill="#1F0231" stroke="#D8CDE0" stroke-opacity="0.1" stroke-width="0.693723"/>
<path d="M36.773 33.8749L36.7726 33.8746L33.7702 32.0036L33.7699 32.0033H33.7696L33.6562 32.185V32.1853L61.904 49.8496L61.9609 49.7588L62.0177 49.6679L62.0174 49.6676L62.0162 49.667L36.773 33.8749Z" fill="#D8CDE0" fill-opacity="0.1" stroke="#D8CDE0" stroke-opacity="0.1" stroke-width="0.693723"/>
<path d="M9.60328 39.2764L9.63418 39.217L9.60822 39.1818L8.15893 32.5131L8.09467 32.2159L7.95842 32.4878L6.55084 35.2998L6.52148 35.3585L6.54682 35.3931L7.97233 41.9958L8.03504 42.2859L8.17222 42.0226L9.60328 39.2764ZM53.9543 55.1361L54.0713 54.9825L53.8792 54.9643L49.4052 54.5426L49.1414 54.5179L49.3138 54.719L51.8503 57.6769L51.9365 57.7776L52.0168 57.6723L53.9543 55.1361ZM62.0454 49.8246L62.1832 49.6485L61.9595 49.6516L57.8832 49.7069L57.6635 49.7097L57.8013 49.8811L59.8444 52.425L59.9291 52.5304L60.0125 52.4241L62.0454 49.8246Z" fill="#1F0231" stroke="#D8CDE0" stroke-opacity="0.1" stroke-width="0.693723"/>
<path d="M23.9811 23.1784L23.982 23.1435L23.9622 23.1145L22.3133 20.7389L22.0801 20.4031L22.1187 20.8103L23.4614 35.0385L23.6752 35.031L23.9811 23.1784Z" fill="#D8CDE0" fill-opacity="0.1" stroke="#D8CDE0" stroke-opacity="0.1" stroke-width="0.693723"/>
<path d="M49.476 54.5797L49.3885 54.4777L49.3085 54.5855L47.3865 57.1764L47.2716 57.3312L47.4638 57.3473L51.9222 57.714L52.1821 57.7353L52.0121 57.5376L49.476 54.5797ZM9.61036 39.1957L9.53405 38.9445L9.41263 39.1772L7.98126 41.9235L7.94696 41.9896L7.99701 42.0449L11.4051 45.8098L11.587 45.7066L9.61036 39.1957ZM9.5909 29.7038L9.61715 29.6516L9.59862 29.6201L8.71965 22.8352L8.67331 22.4783L8.51666 22.8024L7.09827 25.7375L7.07324 25.7891L7.09117 25.8196L7.94758 32.5492L7.99176 32.8987L8.14963 32.5835L9.5909 29.7038Z" fill="#1F0231" stroke="#D8CDE0" stroke-opacity="0.1" stroke-width="0.693723"/>
<path d="M8.06194 7.65109L7.86328 7.72246L9.96076 19.8615L9.96601 19.8915L9.9864 19.9143L23.4882 35.0996L23.6612 34.9751L8.06194 7.65109Z" fill="#D8CDE0" fill-opacity="0.1" stroke="#D8CDE0" stroke-opacity="0.1" stroke-width="0.693723"/>
<path d="M10.1629 19.8899L10.1845 19.8448L10.1641 19.7991L8.52974 16.1825L8.32522 16.2295L8.50656 22.8518L8.71016 22.8957L10.1629 19.8899ZM57.9682 49.7467L57.8823 49.6401L57.7992 49.7489L55.7676 52.409L55.631 52.5875L55.8556 52.581L59.931 52.4649L60.1463 52.459L60.0113 52.2906L57.9682 49.7467ZM47.559 57.304L47.6594 57.1687L47.4941 57.1353L42.7777 56.1843L42.7131 56.1062L42.6723 56.163L42.4443 56.117L42.584 56.2863L40.8273 58.7381L36.0289 57.2885L35.96 57.1996L35.9214 57.2561L35.6752 57.1816L35.8324 57.3849L34.1088 59.8878L34.0251 60.0098L34.1669 60.0515L39.0007 61.4761L39.0675 61.5626L39.107 61.5073L39.352 61.5796L39.1978 61.3806L40.9169 58.981L45.5382 59.8683L45.6006 59.944L45.642 59.8881L45.8681 59.9316L45.7322 59.7666L47.559 57.304ZM11.069 36.4636L11.1002 36.4037L11.0594 36.3496L8.13984 32.4714L7.94922 32.5585L9.40346 39.2495L9.46617 39.5389L9.60304 39.2763L11.069 36.4636Z" fill="#1F0231" stroke="#D8CDE0" stroke-opacity="0.1" stroke-width="0.693723"/>
<path d="M25.999 25.561L26.0123 25.5076L25.9764 25.4659L23.9556 23.1061L23.7742 22.8942L23.7671 23.1728L23.4609 35.0255L23.6723 35.0539L25.999 25.561Z" fill="#D8CDE0" fill-opacity="0.1" stroke="#D8CDE0" stroke-opacity="0.1" stroke-width="0.693723"/>
<path d="M15.5135 49.2636L13.0935 43.0101L13.1064 42.9863L13.0712 42.948L11.0779 36.3871L9.60849 29.6701L11.0683 26.7539L11.0949 26.7008L11.0636 26.6501L8.70542 22.7932L8.50769 22.8627L9.38543 29.6371L7.95837 32.4878L7.92871 32.5471L7.96857 32.6002L10.8477 36.4248L9.41323 39.1772L9.37863 39.2439L9.41292 39.2813L11.3695 45.7261L11.3507 45.7607L11.3911 45.7974L11.4569 46.0137L11.5141 45.9087L15.3417 49.3816L15.5135 49.2636ZM55.938 52.5391L56.0535 52.3877L55.8641 52.3673L51.4196 51.893L51.3602 51.8204L51.3148 51.8819L51.1168 51.8609L51.2286 51.9981L49.3091 54.5856L49.1957 54.7382L49.3851 54.7561L53.8142 55.1735L53.8717 55.2439L53.9181 55.1834L54.1136 55.2016L54.0055 55.0688L55.938 52.5391Z" fill="#1F0231" stroke="#D8CDE0" stroke-opacity="0.1" stroke-width="0.693723"/>
<path d="M28.333 27.8958L28.3808 27.8222L28.3181 27.7608L25.9698 25.4591L25.8354 25.3275L25.7906 25.51L23.4639 35.0029L23.6579 35.0866L28.333 27.8958Z" fill="#D8CDE0" fill-opacity="0.1" stroke="#D8CDE0" stroke-opacity="0.1" stroke-width="0.693723"/>
<path d="M30.9289 30.1261L31.0457 30.0464L30.9372 29.9556L28.3124 27.7552L28.2197 27.6777L28.1539 27.779L23.4785 34.9699L23.6287 35.1169L30.9289 30.1261ZM53.3878 49.1678L53.3693 49.3812L57.872 49.9203L57.8791 49.9213L57.8862 49.921L61.9622 49.8657L61.9668 49.6516L53.3878 49.1678Z" fill="#D8CDE0" fill-opacity="0.1" stroke="#D8CDE0" stroke-opacity="0.1" stroke-width="0.693723"/>
<path d="M17.0526 46.5216L16.9742 46.3541L16.9374 46.4184L13.0471 42.9226L12.8753 43.0409L15.295 49.2935L15.2734 49.3309L15.3244 49.3695L15.3948 49.5509L15.4461 49.461L19.6991 52.6667L19.8607 52.5357L17.0854 46.5917L17.1005 46.5649L17.0526 46.5216ZM37.7329 54.6251L37.4917 54.5503L37.6446 54.7533L35.8768 57.3204L35.7937 57.4412L35.9342 57.4838L40.8052 58.9554L40.8719 59.044L40.9121 58.9878L41.1521 59.0604L41.0026 58.8614L42.8062 56.3441L42.8928 56.2233L42.7506 56.1794L37.8414 54.6585L37.7728 54.5673L37.7329 54.6251ZM12.5707 33.5824L12.6022 33.5218L12.5605 33.4675L9.58033 29.5907L9.39062 29.6788L10.869 36.4371L10.9323 36.726L11.0689 36.4637L12.5707 33.5824Z" fill="#1F0231" stroke="#D8CDE0" stroke-opacity="0.1" stroke-width="0.693723"/>
<path d="M33.7428 32.197L33.9538 32.1362L33.7758 32.0073L30.9313 29.951L30.8701 29.9068L30.808 29.9494L23.5078 34.9399L23.598 35.1311L33.7428 32.197Z" fill="#D8CDE0" fill-opacity="0.1" stroke="#D8CDE0" stroke-opacity="0.1" stroke-width="0.693723"/>
<path d="M14.5963 40.2511L14.6331 40.1834L14.5805 40.1269L11.0517 36.341L10.8707 36.4454L12.8724 43.0335L12.9468 43.2782L13.0692 43.0536L14.5963 40.2511ZM26.1845 52.7853L26.0939 52.6394L26.0028 52.7846L24.4309 55.2822L21.4689 49.8425L21.3793 49.6778L21.2829 49.8385L19.6715 52.526L19.6174 52.6163L19.7064 52.6719L24.2764 55.5281L24.2711 55.5362L24.3715 55.5874L24.7135 55.8012L24.6839 55.7469L29.2276 58.0655L29.5703 58.2404L29.3673 57.9135L26.1845 52.7853ZM11.0761 26.6828L11.0112 26.3875L10.8756 26.6578L9.39911 29.608L9.36914 29.6679L9.40993 29.7211L12.3901 33.5981L12.5798 33.5098L11.0761 26.6828ZM57.9691 49.8789L58.0831 49.7297L57.8968 49.7075L53.3939 49.1684L53.1402 49.1381L53.2965 49.3404L55.7672 52.5393L55.8525 52.6499L55.9371 52.539L57.9691 49.8789Z" fill="#1F0231" stroke="#D8CDE0" stroke-opacity="0.1" stroke-width="0.693723"/>
<path d="M33.7695 32.0033L33.7287 31.978L33.683 31.9913L23.5382 34.9254L23.2314 35.0141L23.5296 35.1284L61.9218 49.8586L62.017 49.6677L33.7695 32.0033Z" fill="#D8CDE0" fill-opacity="0.1" stroke="#D8CDE0" stroke-opacity="0.1" stroke-width="0.693723"/>
<path d="M36.0948 57.3816L37.82 54.8763L42.6532 56.3737L42.7197 56.4646L42.7611 56.4071L42.9962 56.48L42.8513 56.2811L44.6599 53.7566L49.3337 54.7459L49.3961 54.8275L49.44 54.7684L49.655 54.8139L49.529 54.6486L51.4133 52.1081L55.8412 52.5804L56.0908 52.607L55.9372 52.4084L53.4663 49.2095L53.3797 49.0973L53.2954 49.211L51.319 51.8754L46.6168 50.8309L46.5528 50.7468L46.5096 50.8071L46.2924 50.7589L46.4221 50.9291L44.5718 53.5116L39.6987 51.9635L39.6305 51.8695L39.5897 51.9286L39.3533 51.8535L39.5016 52.0568L37.7372 54.6186L32.8338 52.5947L32.7618 52.489L32.7226 52.5486L32.473 52.4457L32.6342 52.6824L31.0024 55.158L27.8958 50.0677L27.8059 49.9201L27.7139 50.0665L26.1011 52.6289L23.1213 47.0888L23.0317 46.9229L22.935 47.0845L21.3875 49.6652L18.6749 43.8093L18.6903 43.7821L18.6421 43.7392L18.5643 43.5708L18.5269 43.6363L14.6372 40.1766L16.1616 37.3794L16.1986 37.3111L16.1452 37.2543L12.6058 33.5147L14.1095 30.6294L14.1413 30.5682L14.1138 30.533L12.5978 23.6972L12.6077 23.6771L12.5854 23.6419L12.5243 23.3653L12.4742 23.4651L10.1568 19.7861L9.95996 19.8572L10.8615 26.6875L10.8457 26.7187L10.8695 26.749L10.9112 27.0663L10.9322 27.0246L12.3624 33.5178L10.8788 36.3648L10.8436 36.4318L10.8952 36.4874L14.3715 40.2165L12.8811 42.951L12.8406 43.0255L12.9036 43.082L16.8286 46.6087L16.8246 46.6158L16.8755 46.6541L16.9457 46.8358L16.9549 46.8197L19.6666 52.6265L19.7519 52.8091L19.8557 52.6361L21.3708 50.1094L24.3306 55.5454L24.418 55.7061L24.5153 55.5513L26.0931 53.0439L29.1857 58.0266L29.2741 58.1691L29.3661 58.0291L31.0354 55.4973L31.2885 55.6273L31.2597 55.5801L35.8946 57.4684L35.9644 57.5709L36.0043 57.5129L36.2536 57.6145L36.0948 57.3816Z" fill="#1F0231" stroke="#D8CDE0" stroke-opacity="0.1" stroke-width="0.693723"/>
<path d="M10.1535 19.7809L9.97559 19.9004L12.3944 23.7404L12.3978 23.7457L12.4015 23.7503L15.5086 27.6202L15.6791 27.4908L10.1535 19.7809ZM43.5068 46.3517L43.4586 46.5602L53.3524 49.3782L53.3639 49.3812L53.3756 49.3819L61.9546 49.8657L61.9796 49.6531L43.5068 46.3517Z" fill="#D8CDE0" fill-opacity="0.1" stroke="#D8CDE0" stroke-opacity="0.1" stroke-width="0.693723"/>
<path d="M37.9055 54.7518L39.6758 52.181L44.5465 53.7285L44.6129 53.8218L44.6549 53.7628L44.8854 53.836L44.7448 53.6377L46.601 51.0471L51.3008 52.0908L51.3629 52.1757L51.408 52.1145L51.6181 52.1612L51.4967 51.9953L53.4671 49.3389L53.5645 49.2076L53.4057 49.1705L48.6086 48.0534L48.5446 47.9659L48.5004 48.028L48.2885 47.9786L48.4133 48.1491L46.5136 50.8009L41.6028 49.2005L41.5345 49.1041L41.4928 49.1647L41.2614 49.089L41.405 49.2923L39.5937 51.9224L34.643 49.8515L34.5713 49.744L34.5312 49.8048L34.2862 49.7022L34.4431 49.9383L32.7674 52.4803L29.6494 47.2819L29.5598 47.1324L29.4668 47.2798L27.8118 49.9099L24.814 44.2662L24.725 44.0988L24.6274 44.2613L23.0391 46.9103L20.3036 40.9574L20.3197 40.9296L20.2712 40.8866L20.1936 40.7179L20.1556 40.785L16.202 37.3043L17.7653 34.4354L17.803 34.3665L17.7486 34.3097L14.1447 30.5611L15.6867 27.6026L15.7188 27.5405L15.6752 27.4861L12.5681 23.6162L12.3799 23.7064L13.9009 30.5652L12.3799 33.4832L12.3447 33.5512L12.3972 33.6065L15.9357 37.3451L14.4079 40.1488L14.3671 40.2236L14.4308 40.2801L18.4178 43.8266L18.4138 43.8334L18.4651 43.8717L18.5349 44.0537L18.5438 44.0376L21.2778 49.9389L21.3627 50.1224L21.4668 49.9488L23.0215 47.3564L25.9992 52.8925L26.0863 53.0544L26.1842 52.899L27.8025 50.327L30.9069 55.4138L30.9949 55.5581L31.0879 55.4172L32.7995 52.8208L33.0485 52.9493L33.0213 52.9042L37.705 54.8373L37.7746 54.9418L37.8153 54.8828L38.06 54.9838L37.9055 54.7518Z" fill="#1F0231" stroke="#D8CDE0" stroke-opacity="0.1" stroke-width="0.693723"/>
<path d="M61.9993 49.6587L23.6312 34.9377L10.1466 19.7719L9.97949 19.9057L15.5051 27.6156L15.5113 27.6239L15.519 27.6313L23.4952 35.1064L23.5453 35.0576L23.515 35.1213L43.435 46.5503L43.451 46.5596L43.4693 46.5627L61.9418 49.8641L61.9993 49.6587Z" fill="#D8CDE0" fill-opacity="0.1" stroke="#D8CDE0" stroke-opacity="0.1" stroke-width="0.693723"/>
<path d="M34.536 49.7983L29.6113 47.2436L24.7805 44.2276L20.2729 40.8847L17.7732 34.3492L15.6946 27.5216L15.6182 27.2711L15.4971 27.5034L13.9196 30.5305L13.8838 30.5988L13.9372 30.6541L17.5402 34.4017L15.9735 37.2768L15.9325 37.3519L15.9967 37.4084L20.0959 41.0176L22.9296 47.1843L23.0142 47.369L23.119 47.1948L24.7144 44.5341L27.71 50.1737L27.7968 50.3371L27.8954 50.1805L29.556 47.5414L32.6715 52.7365L32.7592 52.8826L32.8528 52.7405L34.6129 50.0708L39.5614 52.1408L39.6306 52.2474L39.672 52.1871L39.9124 52.2879L39.7619 52.0564L41.6246 49.3519L41.699 49.2437L41.5782 49.1925L36.4991 47.0388L36.4277 46.9291L36.3866 46.9912L36.1459 46.8889L36.2989 47.1243L34.536 49.7983Z" fill="#1F0231" stroke="#D8CDE0" stroke-opacity="0.1" stroke-width="0.693723"/>
<path d="M43.5174 46.3542L43.4541 46.559L48.5126 48.2502L48.5172 48.2517L48.5222 48.253L53.3576 49.3794L53.4113 49.1718L43.5174 46.3542Z" fill="#D8CDE0" fill-opacity="0.1" stroke="#D8CDE0" stroke-opacity="0.1" stroke-width="0.693723"/>
<path d="M26.4243 41.2651L21.943 37.9602L19.4343 31.373L19.4485 31.3468L19.4086 31.3063L19.3339 31.1095L19.2918 31.1864L15.6681 27.4781L15.4893 27.5844L17.5558 34.372L17.5361 34.4082L17.5778 34.4446L17.6433 34.6597L17.6544 34.6393L20.0651 40.9428L20.0432 40.9814L20.0945 41.0194L20.1643 41.2017L20.2165 41.11L24.5777 44.3447L24.5734 44.3515L24.6355 44.3901L24.7065 44.5464L24.7553 44.4649L29.4097 47.3709L29.4051 47.3783L29.4786 47.4166L29.5493 47.5516L29.5917 47.4843L29.8361 47.6369L29.811 47.589L34.4951 50.0186L34.5667 50.1403L34.6081 50.0773L34.8534 50.2046L34.698 49.9411L36.5159 47.1837L36.5814 47.0845L36.4761 47.0295L31.4327 44.3985L31.3589 44.2733L31.3221 44.332L26.5371 41.3457L26.462 41.2023L26.4243 41.2651ZM43.4451 46.33L43.218 46.254L43.3573 46.457L41.4477 49.2305L41.3661 49.3485L41.5027 49.393L46.4873 51.0174L46.5531 51.1135L46.5967 51.053L46.8222 51.1268L46.686 50.9282L48.633 48.2109L48.7173 48.0929L48.5799 48.0469L43.5554 46.3668L43.4877 46.2679L43.4451 46.33Z" fill="#1F0231" stroke="#D8CDE0" stroke-opacity="0.1" stroke-width="0.693723"/>
<path d="M15.6655 27.4747L15.5156 27.6279L19.2403 31.4401L19.2438 31.4432L19.2471 31.4463L23.4983 35.1095L23.6417 34.9501L15.6655 27.4747Z" fill="#D8CDE0" fill-opacity="0.1" stroke="#D8CDE0" stroke-opacity="0.1" stroke-width="0.693723"/>
<path d="M38.2933 44.0994L33.2784 41.4677L33.2052 41.3407L33.1632 41.4072L32.9228 41.2811L33.0761 41.5459L31.3657 44.2637L28.3599 38.4554L28.3794 38.423L28.321 38.3801L28.2441 38.2318L28.2058 38.2957L23.6543 34.9584L23.5795 34.7928L23.5397 34.8623L19.387 31.2841L19.2168 31.4033L21.7366 38.0186L21.7144 38.0575L21.766 38.0952L21.8355 38.2778L21.888 38.1854L26.3143 41.4498L26.3103 41.4566L26.3721 41.4949L26.4429 41.6519L26.4877 41.5774L26.7228 41.751L26.6996 41.6994L31.2088 44.5134L31.2041 44.5205L31.3033 44.5724L31.6314 44.7772L31.6076 44.7312L36.2725 47.1648L36.2669 47.1731L36.3522 47.2093L36.4211 47.3282L36.4634 47.2643L36.7047 47.3903L36.6803 47.3483L41.4638 49.3769L41.5327 49.4853L41.575 49.4242L41.8114 49.5243L41.6649 49.2935L43.5764 46.5179L43.6506 46.4103L43.5304 46.3587L38.4021 44.1538L38.331 44.0419L38.2933 44.0994Z" fill="#1F0231" stroke="#D8CDE0" stroke-opacity="0.1" stroke-width="0.693723"/>
<path d="M23.6212 34.9356L23.5078 35.1173L33.1406 41.6371L33.1471 41.6414L33.1527 41.6442L38.2791 44.3342L38.2828 44.3361L38.2865 44.3376L43.4451 46.5559L43.4754 46.4892L43.5409 46.3644L23.6212 34.9356Z" fill="#D8CDE0" fill-opacity="0.1" stroke="#D8CDE0" stroke-opacity="0.1" stroke-width="0.693723"/>
<path d="M33.2913 41.6053L33.3485 41.5141L33.2574 41.4573L28.2931 38.3607L27.9619 38.154L28.1414 38.5009L31.2609 44.5286L31.3468 44.6951L31.4466 44.5366L33.2913 41.6053Z" fill="#1F0231" stroke="#D8CDE0" stroke-opacity="0.1" stroke-width="0.693723"/>
<path d="M23.6282 34.9396L23.5049 35.1148L28.1738 38.538L28.1768 38.5404L28.1802 38.5426L33.1445 41.6392L33.2613 41.4594L23.6282 34.9396Z" fill="#D8CDE0" fill-opacity="0.1" stroke="#D8CDE0" stroke-opacity="0.1" stroke-width="0.693723"/>
</svg>
