<svg width="180" height="180" viewBox="0 0 180 180" fill="none" xmlns="http://www.w3.org/2000/svg">
<path fill-rule="evenodd" clip-rule="evenodd" d="M180 180H134.289C134.289 162.365 130.815 144.903 124.067 128.611C117.318 112.319 107.426 97.5156 94.956 85.0464C82.4861 72.5772 67.6821 62.6863 51.3895 55.9385C35.0969 49.1908 17.6347 45.7183 0 45.7194V0C99.4101 0 180 80.5899 180 180Z" fill="#3E0563"/>
<path fill-rule="evenodd" clip-rule="evenodd" d="M99.9969 180H63.7124C63.7124 163.113 57.0042 146.918 45.0635 134.977C33.1228 123.036 16.9277 116.328 0.0410156 116.328V80.0437C26.5476 80.0547 51.9654 90.5892 70.7084 109.332C89.4514 128.075 99.986 153.493 99.9969 180Z" fill="#FA9706"/>
</svg>
